<svg width="758" height="100" viewBox="0 0 758 100" fill="none" xmlns="http://www.w3.org/2000/svg">
<mask id="path-1-inside-1_205_1248" fill="white">
<path d="M65.704 3.582C76.212 7.558 82.744 17.356 81.892 27.864C81.466 34.112 78.342 40.36 73.94 43.626C73.656 43.91 73.23 44.194 72.946 44.336C67.124 48.454 60.024 50.3 53.066 49.874C52.214 49.732 51.788 49.732 51.788 49.732C31.624 48.738 20.69 56.406 16.004 60.95V100H0.81V0.599993H44.972C48.806 0.599993 52.924 0.741991 56.9 1.30999C60.024 1.736 62.864 2.44599 65.704 3.582ZM70.106 26.16C70.816 16.362 65.562 7.27399 56.474 2.72999C52.64 2.162 48.664 2.162 44.972 2.162H16.004V58.962C18.844 56.548 22.962 53.566 28.926 51.294C29.068 51.294 29.21 51.294 29.494 51.152C33.754 49.732 38.866 48.596 45.114 48.312C51.362 48.028 57.468 45.898 62.438 41.922H62.58C66.698 38.656 69.68 32.55 70.106 26.16ZM160.371 15.936C167.755 24.882 172.299 37.094 172.299 50.3C172.299 77.706 153.271 100 129.841 100C120.185 100 111.239 96.308 104.139 89.918C102.151 88.498 100.589 86.794 99.1694 84.806C91.7854 75.86 87.3834 63.648 87.3834 50.3C87.3834 23.036 106.411 0.599993 129.841 0.599993C139.355 0.599993 148.301 4.43399 155.401 10.824C157.389 12.244 159.093 13.948 160.371 15.936ZM155.401 65.21C165.767 47.46 166.761 28.006 159.377 16.93C157.815 15.084 156.253 13.522 154.549 11.96C153.981 11.534 153.271 11.108 152.703 10.682C149.579 8.836 146.029 7.984 142.337 7.984C129.273 7.984 113.937 18.492 104.139 35.532C93.9154 53.282 92.7794 72.736 100.305 83.812C101.725 85.658 103.287 87.22 104.991 88.782C105.701 89.208 106.269 89.634 106.837 90.06C113.653 93.894 122.457 93.61 131.545 88.924C140.917 84.238 149.295 75.86 155.401 65.21ZM131.261 39.792C131.687 44.62 135.521 48.454 140.491 49.022L154.265 50.442L140.491 51.862C135.521 52.288 131.687 56.122 131.261 61.092L129.841 74.866L128.421 61.092C127.853 56.122 124.019 52.288 119.191 51.862L105.417 50.442L119.191 49.022C124.019 48.454 127.853 44.62 128.421 39.792L129.841 26.018L131.261 39.792ZM275.87 98.58L280.414 100H250.452H250.168C250.026 99.858 246.902 97.302 240.654 78.416C237.246 67.766 233.696 61.802 230.146 56.548C229.294 55.412 228.3 54.418 227.164 53.566C227.164 53.566 227.022 53.566 227.022 53.424C224.75 52.004 221.768 51.436 219.07 52.004C214.384 52.856 209.698 54.56 205.438 56.832L204.728 55.554C211.402 52.004 218.786 49.874 226.312 49.732V49.59H228.016C235.258 49.59 242.074 46.324 246.618 40.502C249.316 37.236 251.02 33.26 251.588 29C253.434 14.516 242.074 2.162 228.016 2.162H199.19V100H183.996V0.599993H238.524C252.582 0.599993 264.51 12.244 264.226 26.302C264.084 40.076 252.724 51.152 239.092 51.152H227.874C227.306 51.152 226.596 51.152 226.028 51.152C227.306 51.862 228.584 52.714 230.004 53.708V53.85C234.832 57.4 239.66 62.796 244.488 69.612C261.528 93.894 275.728 98.58 275.87 98.58ZM273.543 0.599993H378.907V18.35L377.771 17.64C377.487 17.498 366.127 2.162 340.993 2.162C339.005 2.162 337.301 3.014 335.881 4.292C334.603 5.57 333.893 7.416 333.893 9.404V100H318.557V9.404C318.557 7.416 317.705 5.57 316.427 4.292C315.007 3.014 313.303 2.162 311.315 2.162C286.181 2.162 274.821 17.498 274.537 17.64L273.543 18.35V0.599993ZM387.289 0.599993H461.271V18.35L460.135 17.64C459.993 17.64 455.733 14.942 448.491 11.676C434.007 5.28599 418.387 2.162 402.483 2.162V46.75H433.297V48.312H402.483V100H387.289V0.599993ZM536.172 15.936C543.556 24.882 548.1 37.094 548.1 50.3C548.1 77.706 529.072 100 505.642 100C495.986 100 487.04 96.308 479.94 89.918C477.952 88.498 476.39 86.794 474.97 84.806C467.586 75.86 463.184 63.648 463.184 50.3C463.184 23.036 482.212 0.599993 505.642 0.599993C515.156 0.599993 524.102 4.43399 531.202 10.824C533.19 12.244 534.894 13.948 536.172 15.936ZM531.202 65.21C541.568 47.46 542.562 28.006 535.178 16.93C533.616 15.084 532.054 13.522 530.35 11.96C529.782 11.534 529.072 11.108 528.504 10.682C525.38 8.836 521.83 7.984 518.138 7.984C505.074 7.984 489.738 18.492 479.94 35.532C469.716 53.282 468.58 72.736 476.106 83.812C477.526 85.658 479.088 87.22 480.792 88.782C481.502 89.208 482.07 89.634 482.638 90.06C489.454 93.894 498.258 93.61 507.346 88.924C516.718 84.238 525.096 75.86 531.202 65.21ZM507.062 39.792C507.488 44.62 511.322 48.454 516.292 49.022L530.066 50.442L516.292 51.862C511.322 52.288 507.488 56.122 507.062 61.092L505.642 74.866L504.222 61.092C503.654 56.122 499.82 52.288 494.992 51.862L481.218 50.442L494.992 49.022C499.82 48.454 503.654 44.62 504.222 39.792L505.642 26.018L507.062 39.792ZM635.34 80.546L636.618 78.7V100H559.796V0.599993H574.99V98.58H583.936C587.77 98.58 591.462 98.296 595.296 97.728C625.968 92.9 635.198 80.688 635.34 80.546ZM660.551 100H645.357V0.599993H660.551V100ZM745.151 15.936C752.535 24.882 757.079 37.094 757.079 50.3C757.079 77.706 738.051 100 714.621 100C704.965 100 696.019 96.308 688.919 89.918C686.931 88.498 685.369 86.794 683.949 84.806C676.565 75.86 672.163 63.648 672.163 50.3C672.163 23.036 691.191 0.599993 714.621 0.599993C724.135 0.599993 733.081 4.43399 740.181 10.824C742.169 12.244 743.873 13.948 745.151 15.936ZM740.181 65.21C750.547 47.46 751.541 28.006 744.157 16.93C742.595 15.084 741.033 13.522 739.329 11.96C738.761 11.534 738.051 11.108 737.483 10.682C734.359 8.836 730.809 7.984 727.117 7.984C714.053 7.984 698.717 18.492 688.919 35.532C678.695 53.282 677.559 72.736 685.085 83.812C686.505 85.658 688.067 87.22 689.771 88.782C690.481 89.208 691.049 89.634 691.617 90.06C698.433 93.894 707.237 93.61 716.325 88.924C725.697 84.238 734.075 75.86 740.181 65.21ZM716.041 39.792C716.467 44.62 720.301 48.454 725.271 49.022L739.045 50.442L725.271 51.862C720.301 52.288 716.467 56.122 716.041 61.092L714.621 74.866L713.201 61.092C712.633 56.122 708.799 52.288 703.971 51.862L690.197 50.442L703.971 49.022C708.799 48.454 712.633 44.62 713.201 39.792L714.621 26.018L716.041 39.792Z"/>
</mask>
<path d="M65.704 3.582L64.5898 6.36743L64.616 6.37789L64.6423 6.38786L65.704 3.582ZM81.892 27.864L78.9018 27.6216L78.9003 27.6407L78.899 27.6599L81.892 27.864ZM73.94 43.626L72.1525 41.2167L71.975 41.3484L71.8187 41.5047L73.94 43.626ZM72.946 44.336L71.6044 41.6527L71.4001 41.7549L71.2136 41.8867L72.946 44.336ZM53.066 49.874L52.5728 52.8332L52.7268 52.8588L52.8827 52.8684L53.066 49.874ZM51.788 49.732L51.6403 52.7284L51.7141 52.732H51.788V49.732ZM16.004 60.95L13.9156 58.7963L13.004 59.6802V60.95H16.004ZM16.004 100V103H19.004V100H16.004ZM0.81 100H-2.19V103H0.81V100ZM0.81 0.599993V-2.40001H-2.19V0.599993H0.81ZM56.9 1.30999L56.4757 4.27984L56.4852 4.28119L56.4947 4.28248L56.9 1.30999ZM70.106 26.16L67.1139 25.9432L67.1132 25.9518L67.1126 25.9604L70.106 26.16ZM56.474 2.72999L57.8156 0.0467091L57.3873 -0.167444L56.9136 -0.237619L56.474 2.72999ZM16.004 2.162V-0.838001H13.004V2.162H16.004ZM16.004 58.962H13.004V65.4493L17.9469 61.2478L16.004 58.962ZM28.926 51.294V48.294H28.3739L27.858 48.4905L28.926 51.294ZM29.494 51.152L28.5453 48.3059L28.3431 48.3734L28.1524 48.4687L29.494 51.152ZM62.438 41.922V38.922H61.3857L60.5639 39.5794L62.438 41.922ZM62.58 41.922V44.922H63.6252L64.4442 44.2725L62.58 41.922ZM65.704 3.582L64.6423 6.38786C74.014 9.93388 79.6363 18.5633 78.9018 27.6216L81.892 27.864L84.8822 28.1064C85.8517 16.1487 78.4101 5.18212 66.7657 0.776138L65.704 3.582ZM81.892 27.864L78.899 27.6599C78.5221 33.187 75.7333 38.56 72.1525 41.2167L73.94 43.626L75.7275 46.0353C80.9507 42.16 84.4099 35.037 84.8851 28.0681L81.892 27.864ZM73.94 43.626L71.8187 41.5047C71.8331 41.4903 71.8312 41.4936 71.8084 41.5122C71.7871 41.5296 71.7578 41.5519 71.7226 41.5765C71.6876 41.601 71.6545 41.6224 71.6278 41.6386C71.5991 41.656 71.5905 41.6597 71.6044 41.6527L72.946 44.336L74.2876 47.0193C74.8079 46.7591 75.5115 46.2972 76.0613 45.7473L73.94 43.626ZM72.946 44.336L71.2136 41.8867C65.9839 45.5858 59.5686 47.2665 53.2493 46.8796L53.066 49.874L52.8827 52.8684C60.4794 53.3335 68.2641 51.3222 74.6784 46.7852L72.946 44.336ZM53.066 49.874L53.5592 46.9148C53.0531 46.8305 52.6522 46.7847 52.3566 46.7601C52.2089 46.7478 52.0876 46.7408 51.9928 46.7368C51.9454 46.7348 51.9046 46.7336 51.8705 46.7329C51.8534 46.7326 51.838 46.7323 51.8242 46.7322C51.8174 46.7321 51.8109 46.7321 51.8049 46.732C51.8019 46.732 51.7989 46.732 51.7961 46.732C51.7947 46.732 51.7933 46.732 51.792 46.732C51.7913 46.732 51.7906 46.732 51.79 46.732C51.7896 46.732 51.7892 46.732 51.789 46.732C51.7885 46.732 51.788 46.732 51.788 49.732C51.788 52.732 51.7875 52.732 51.787 52.732C51.7869 52.732 51.7864 52.732 51.7861 52.732C51.7854 52.732 51.7848 52.732 51.7842 52.732C51.7829 52.732 51.7817 52.732 51.7805 52.732C51.7781 52.732 51.7758 52.732 51.7736 52.732C51.7693 52.7319 51.7653 52.7319 51.7617 52.7319C51.7547 52.7318 51.7492 52.7317 51.7455 52.7316C51.738 52.7315 51.7371 52.7314 51.743 52.7316C51.7547 52.7321 51.7931 52.7339 51.8584 52.7394C51.9888 52.7503 52.2269 52.7755 52.5728 52.8332L53.066 49.874ZM51.788 49.732L51.9357 46.7356C30.841 45.6958 19.1216 53.748 13.9156 58.7963L16.004 60.95L18.0924 63.1037C22.2584 59.0639 32.407 51.7802 51.6403 52.7284L51.788 49.732ZM16.004 60.95H13.004V100H16.004H19.004V60.95H16.004ZM16.004 100V97H0.81V100V103H16.004V100ZM0.81 100H3.81V0.599993H0.81H-2.19V100H0.81ZM0.81 0.599993V3.59999H44.972V0.599993V-2.40001H0.81V0.599993ZM44.972 0.599993V3.59999C48.7449 3.59999 52.7024 3.74079 56.4757 4.27984L56.9 1.30999L57.3243 -1.65985C53.1456 -2.25681 48.8671 -2.40001 44.972 -2.40001V0.599993ZM56.9 1.30999L56.4947 4.28248C59.4057 4.67944 62.0041 5.33314 64.5898 6.36743L65.704 3.582L66.8182 0.796568C63.7239 -0.441145 60.6423 -1.20745 57.3053 -1.6625L56.9 1.30999ZM70.106 26.16L73.0982 26.3768C73.899 15.3253 67.9523 5.11504 57.8156 0.0467091L56.474 2.72999L55.1324 5.41327C63.1717 9.43295 67.733 17.3987 67.1139 25.9432L70.106 26.16ZM56.474 2.72999L56.9136 -0.237619C52.8245 -0.843416 48.6264 -0.838001 44.972 -0.838001V2.162V5.162C48.7016 5.162 52.4555 5.16741 56.0344 5.6976L56.474 2.72999ZM44.972 2.162V-0.838001H16.004V2.162V5.162H44.972V2.162ZM16.004 2.162H13.004V58.962H16.004H19.004V2.162H16.004ZM16.004 58.962L17.9469 61.2478C20.6075 58.9863 24.4348 56.2152 29.994 54.0975L28.926 51.294L27.858 48.4905C21.4892 50.9168 17.0805 54.1097 14.0611 56.6762L16.004 58.962ZM28.926 51.294V54.294C29.0017 54.294 29.337 54.2996 29.7451 54.218C30.1515 54.1367 30.5125 53.9969 30.8356 53.8353L29.494 51.152L28.1524 48.4687C28.1916 48.4491 28.3395 48.3803 28.5684 48.3345C28.799 48.2884 28.9923 48.294 28.926 48.294V51.294ZM29.494 51.152L30.4427 53.998C34.4632 52.6579 39.302 51.5793 45.2502 51.3089L45.114 48.312L44.9778 45.3151C38.43 45.6127 33.0448 46.8061 28.5453 48.3059L29.494 51.152ZM45.114 48.312L45.2502 51.3089C52.0838 50.9983 58.8101 48.6662 64.3121 44.2646L62.438 41.922L60.5639 39.5794C56.1259 43.1298 50.6402 45.0577 44.9778 45.3151L45.114 48.312ZM62.438 41.922V44.922H62.58V41.922V38.922H62.438V41.922ZM62.58 41.922L64.4442 44.2725C69.3417 40.3882 72.6278 33.4326 73.0994 26.3596L70.106 26.16L67.1126 25.9604C66.7322 31.6674 64.0543 36.9238 60.7158 39.5715L62.58 41.922ZM160.371 15.936L157.848 17.5583L157.944 17.7082L158.058 17.8457L160.371 15.936ZM104.139 89.918L106.146 87.6881L106.021 87.575L105.883 87.4768L104.139 89.918ZM99.1694 84.806L101.611 83.0623L101.55 82.9771L101.483 82.8963L99.1694 84.806ZM155.401 10.824L153.395 13.0539L153.52 13.167L153.658 13.2652L155.401 10.824ZM155.401 65.21L152.811 63.6971L152.805 63.7075L152.799 63.7178L155.401 65.21ZM159.377 16.93L161.874 15.2659L161.778 15.1231L161.668 14.9922L159.377 16.93ZM154.549 11.96L156.577 9.74853L156.468 9.64868L156.349 9.56001L154.549 11.96ZM152.703 10.682L154.503 8.28199L154.372 8.18308L154.23 8.09922L152.703 10.682ZM104.139 35.532L106.739 37.0294L106.74 37.0274L104.139 35.532ZM100.305 83.812L97.824 85.4981L97.8737 85.5711L97.9275 85.6411L100.305 83.812ZM104.991 88.782L102.964 90.9935L103.188 91.1984L103.448 91.3545L104.991 88.782ZM106.837 90.06L105.037 92.46L105.195 92.5782L105.367 92.6747L106.837 90.06ZM131.545 88.924L130.204 86.2407L130.187 86.2491L130.171 86.2576L131.545 88.924ZM131.261 39.792L134.25 39.5283L134.248 39.5063L134.246 39.4844L131.261 39.792ZM140.491 49.022L140.151 52.0026L140.167 52.0045L140.184 52.0062L140.491 49.022ZM154.265 50.442L154.573 53.4262V47.4578L154.265 50.442ZM140.491 51.862L140.748 54.851L140.773 54.8488L140.799 54.8462L140.491 51.862ZM131.261 61.092L134.246 61.3996L134.248 61.3739L134.25 61.3482L131.261 61.092ZM129.841 74.866L126.857 75.1736H132.826L129.841 74.866ZM128.421 61.092L131.406 60.7843L131.404 60.7678L131.402 60.7514L128.421 61.092ZM119.191 51.862L118.884 54.8462L118.906 54.8484L118.928 54.8504L119.191 51.862ZM105.417 50.442L105.11 47.4578L105.11 53.4262L105.417 50.442ZM119.191 49.022L119.499 52.0062L119.521 52.004L119.542 52.0014L119.191 49.022ZM128.421 39.792L131.401 40.1425L131.403 40.1211L131.406 40.0996L128.421 39.792ZM129.841 26.018L132.826 25.7104H126.857L129.841 26.018ZM160.371 15.936L158.058 17.8457C164.984 26.2376 169.299 37.7692 169.299 50.3H172.299H175.299C175.299 36.4188 170.526 23.5264 162.685 14.0263L160.371 15.936ZM172.299 50.3H169.299C169.299 76.5105 151.188 97 129.841 97V100V103C155.355 103 175.299 78.9015 175.299 50.3H172.299ZM129.841 100V97C120.977 97 112.734 93.6172 106.146 87.6881L104.139 89.918L102.133 92.1479C109.745 98.9988 119.394 103 129.841 103V100ZM104.139 89.918L105.883 87.4768C104.23 86.2962 102.892 84.8556 101.611 83.0623L99.1694 84.806L96.7282 86.5497C98.2873 88.7324 100.073 90.6998 102.396 92.3592L104.139 89.918ZM99.1694 84.806L101.483 82.8963C94.5732 74.5248 90.3834 63.0005 90.3834 50.3H87.3834H84.3834C84.3834 64.2955 88.9976 77.1952 96.8557 86.7157L99.1694 84.806ZM87.3834 50.3H90.3834C90.3834 24.2255 108.5 3.59999 129.841 3.59999V0.599993V-2.40001C104.323 -2.40001 84.3834 21.8465 84.3834 50.3H87.3834ZM129.841 0.599993V3.59999C138.529 3.59999 146.778 7.09944 153.395 13.0539L155.401 10.824L157.408 8.59412C149.824 1.76855 140.182 -2.40001 129.841 -2.40001V0.599993ZM155.401 10.824L153.658 13.2652C155.384 14.4983 156.805 15.9362 157.848 17.5583L160.371 15.936L162.895 14.3137C161.382 11.9598 159.395 9.9897 157.145 8.38279L155.401 10.824ZM155.401 65.21L157.992 66.7229C168.672 48.4359 170.14 27.6659 161.874 15.2659L159.377 16.93L156.881 18.5941C163.383 28.3461 162.863 46.4841 152.811 63.6971L155.401 65.21ZM159.377 16.93L161.668 14.9922C160.002 13.0243 158.346 11.3704 156.577 9.74853L154.549 11.96L152.522 14.1715C154.161 15.6736 155.628 17.1437 157.087 18.8678L159.377 16.93ZM154.549 11.96L156.349 9.56001C155.986 9.28778 155.594 9.02744 155.291 8.82485C154.955 8.60144 154.708 8.43577 154.503 8.28199L152.703 10.682L150.903 13.082C151.266 13.3542 151.658 13.6146 151.962 13.8171C152.297 14.0406 152.544 14.2062 152.749 14.36L154.549 11.96ZM152.703 10.682L154.23 8.09922C150.584 5.94518 146.493 4.984 142.337 4.984V7.984V10.984C145.566 10.984 148.575 11.7268 151.177 13.2648L152.703 10.682ZM142.337 7.984V4.984C127.803 4.984 111.639 16.4701 101.539 34.0366L104.139 35.532L106.74 37.0274C116.235 20.5139 130.744 10.984 142.337 10.984V7.984ZM104.139 35.532L101.54 34.0346C91.0244 52.2906 89.3855 73.0791 97.824 85.4981L100.305 83.812L102.787 82.1259C96.1733 72.3929 96.8064 54.2734 106.739 37.0294L104.139 35.532ZM100.305 83.812L97.9275 85.6411C99.4982 87.683 101.202 89.3779 102.964 90.9935L104.991 88.782L107.019 86.5705C105.373 85.0621 103.953 83.633 102.683 81.9829L100.305 83.812ZM104.991 88.782L103.448 91.3545C104.009 91.6909 104.463 92.0293 105.037 92.46L106.837 90.06L108.637 87.66C108.076 87.2387 107.394 86.7251 106.535 86.2095L104.991 88.782ZM106.837 90.06L105.367 92.6747C113.288 97.1306 123.193 96.6059 132.92 91.5904L131.545 88.924L130.171 86.2576C121.721 90.6141 114.019 90.6574 108.308 87.4453L106.837 90.06ZM131.545 88.924L132.887 91.6073C142.881 86.6101 151.661 77.7654 158.004 66.7021L155.401 65.21L152.799 63.7178C146.93 73.9546 138.953 81.8659 130.204 86.2407L131.545 88.924ZM131.261 39.792L128.273 40.0557C128.83 46.369 133.832 51.2804 140.151 52.0026L140.491 49.022L140.832 46.0414C137.211 45.6276 134.545 42.871 134.25 39.5283L131.261 39.792ZM140.491 49.022L140.184 52.0062L153.958 53.4262L154.265 50.442L154.573 47.4578L140.799 46.0378L140.491 49.022ZM154.265 50.442L153.958 47.4578L140.184 48.8778L140.491 51.862L140.799 54.8462L154.573 53.4262L154.265 50.442ZM140.491 51.862L140.235 48.873C133.811 49.4236 128.823 54.4113 128.272 60.8358L131.261 61.092L134.25 61.3482C134.552 57.8327 137.232 55.1524 140.748 54.851L140.491 51.862ZM131.261 61.092L128.277 60.7843L126.857 74.5583L129.841 74.866L132.826 75.1736L134.246 61.3996L131.261 61.092ZM129.841 74.866L132.826 74.5583L131.406 60.7843L128.421 61.092L125.437 61.3996L126.857 75.1736L129.841 74.866ZM128.421 61.092L131.402 60.7514C130.68 54.4322 125.768 49.4307 119.455 48.8736L119.191 51.862L118.928 54.8504C122.27 55.1453 125.027 57.8118 125.441 61.4326L128.421 61.092ZM119.191 51.862L119.499 48.8778L105.725 47.4578L105.417 50.442L105.11 53.4262L118.884 54.8462L119.191 51.862ZM105.417 50.442L105.725 53.4262L119.499 52.0062L119.191 49.022L118.884 46.0378L105.11 47.4578L105.417 50.442ZM119.191 49.022L119.542 52.0014C125.749 51.2712 130.671 46.3497 131.401 40.1425L128.421 39.792L125.442 39.4415C125.036 42.8903 122.29 45.6368 118.841 46.0425L119.191 49.022ZM128.421 39.792L131.406 40.0996L132.826 26.3256L129.841 26.018L126.857 25.7104L125.437 39.4844L128.421 39.792ZM129.841 26.018L126.857 26.3256L128.277 40.0996L131.261 39.792L134.246 39.4844L132.826 25.7104L129.841 26.018ZM275.87 98.58L276.764 95.7166L276.327 95.58H275.87V98.58ZM280.414 100V103L281.308 97.1366L280.414 100ZM250.168 100L248.046 102.121L248.925 103H250.168V100ZM240.654 78.416L237.796 79.3303L237.801 79.3443L237.805 79.3583L240.654 78.416ZM230.146 56.548L232.631 54.8684L232.59 54.8072L232.546 54.748L230.146 56.548ZM227.164 53.566L228.964 51.166L228.164 50.566H227.164V53.566ZM227.022 53.424H230.022V51.7613L228.612 50.88L227.022 53.424ZM219.07 52.004L219.606 54.9556L219.647 54.9482L219.688 54.9396L219.07 52.004ZM205.438 56.832L202.815 58.2889L204.247 60.8668L206.849 59.4791L205.438 56.832ZM204.728 55.554L203.319 52.9054L200.621 54.3402L202.105 57.0109L204.728 55.554ZM226.312 49.732L226.368 52.7315L229.312 52.6759V49.732H226.312ZM226.312 49.59V46.59H223.312V49.59H226.312ZM246.618 40.502L244.305 38.5914L244.278 38.6234L244.253 38.6562L246.618 40.502ZM251.588 29L254.561 29.3965L254.562 29.3879L254.563 29.3793L251.588 29ZM199.19 2.162V-0.838001H196.19V2.162H199.19ZM199.19 100V103H202.19V100H199.19ZM183.996 100H180.996V103H183.996V100ZM183.996 0.599993V-2.40001H180.996V0.599993H183.996ZM264.226 26.302L261.226 26.2414L261.226 26.2562L261.226 26.2711L264.226 26.302ZM226.028 51.152V48.152H214.45L224.571 53.7745L226.028 51.152ZM230.004 53.708H233.004V52.146L231.724 51.2503L230.004 53.708ZM230.004 53.85H227.004V55.3678L228.226 56.267L230.004 53.85ZM244.488 69.612L246.943 67.8887L246.936 67.8779L244.488 69.612ZM275.87 98.58L274.975 101.443L279.519 102.863L280.414 100L281.308 97.1366L276.764 95.7166L275.87 98.58ZM280.414 100V97H250.452V100V103H280.414V100ZM250.452 100V97H250.168V100V103H250.452V100ZM250.168 100L252.289 97.8787C252.237 97.8269 252.17 97.7886 251.911 97.4389C251.614 97.0371 251.095 96.2525 250.358 94.8456C248.881 92.0238 246.597 86.8292 243.502 77.4737L240.654 78.416L237.805 79.3583C240.958 88.8888 243.36 94.4152 245.042 97.6284C245.886 99.239 246.565 100.3 247.088 101.008C247.352 101.364 247.579 101.635 247.771 101.842C247.916 101.999 248.201 102.276 248.046 102.121L250.168 100ZM240.654 78.416L243.511 77.5017C239.998 66.5229 236.303 60.3029 232.631 54.8684L230.146 56.548L227.66 58.2276C231.088 63.3011 234.493 69.0091 237.796 79.3303L240.654 78.416ZM230.146 56.548L232.546 54.748C231.523 53.3846 230.327 52.1886 228.964 51.166L227.164 53.566L225.364 55.966C226.272 56.6474 227.064 57.4394 227.746 58.348L230.146 56.548ZM227.164 53.566C227.164 50.566 227.165 50.566 227.166 50.566C227.167 50.566 227.168 50.566 227.169 50.566C227.171 50.566 227.173 50.566 227.175 50.566C227.179 50.566 227.183 50.5661 227.187 50.5661C227.195 50.5662 227.203 50.5663 227.212 50.5664C227.228 50.5666 227.245 50.5671 227.262 50.5676C227.296 50.5688 227.333 50.5706 227.371 50.5733C227.447 50.5788 227.536 50.5882 227.635 50.6046C227.818 50.6351 228.108 50.7018 228.434 50.865C228.772 51.034 229.202 51.3347 229.54 51.842C229.891 52.368 230.022 52.9345 230.022 53.424H227.022H224.022C224.022 53.9845 224.17 54.6043 224.548 55.1702C224.912 55.7174 225.377 56.0447 225.751 56.2315C226.113 56.4125 226.438 56.488 226.648 56.523C226.76 56.5416 226.86 56.5521 226.944 56.5581C226.986 56.5611 227.026 56.5631 227.062 56.5643C227.08 56.5649 227.098 56.5653 227.115 56.5656C227.123 56.5657 227.132 56.5658 227.14 56.5659C227.144 56.5659 227.148 56.566 227.152 56.566C227.154 56.566 227.156 56.566 227.158 56.566C227.159 56.566 227.16 56.566 227.161 56.566C227.162 56.566 227.164 56.566 227.164 53.566ZM227.022 53.424L228.612 50.88C225.698 49.0588 221.927 48.3368 218.452 49.0683L219.07 52.004L219.688 54.9396C221.609 54.5352 223.801 54.9492 225.432 55.968L227.022 53.424ZM219.07 52.004L218.533 49.0524C213.512 49.9654 208.532 51.7816 204.026 54.1849L205.438 56.832L206.849 59.4791C210.863 57.3384 215.256 55.7466 219.606 54.9556L219.07 52.004ZM205.438 56.832L208.06 55.3751L207.35 54.0971L204.728 55.554L202.105 57.0109L202.815 58.2889L205.438 56.832ZM204.728 55.554L206.136 58.2026C212.446 54.8464 219.37 52.8635 226.368 52.7315L226.312 49.732L226.255 46.7325C218.201 46.8845 210.357 49.1616 203.319 52.9054L204.728 55.554ZM226.312 49.732H229.312V49.59H226.312H223.312V49.732H226.312ZM226.312 49.59V52.59H228.016V49.59V46.59H226.312V49.59ZM228.016 49.59V52.59C236.174 52.59 243.866 48.9039 248.982 42.3478L246.618 40.502L244.253 38.6562C240.282 43.7441 234.341 46.59 228.016 46.59V49.59ZM246.618 40.502L248.93 42.4126C251.998 38.6997 253.921 34.1948 254.561 29.3965L251.588 29L248.614 28.6035C248.118 32.3252 246.633 35.7723 244.305 38.5914L246.618 40.502ZM251.588 29L254.563 29.3793C256.643 13.0666 243.845 -0.838001 228.016 -0.838001V2.162V5.162C240.302 5.162 250.225 15.9654 248.612 28.6207L251.588 29ZM228.016 2.162V-0.838001H199.19V2.162V5.162H228.016V2.162ZM199.19 2.162H196.19V100H199.19H202.19V2.162H199.19ZM199.19 100V97H183.996V100V103H199.19V100ZM183.996 100H186.996V0.599993H183.996H180.996V100H183.996ZM183.996 0.599993V3.59999H238.524V0.599993V-2.40001H183.996V0.599993ZM238.524 0.599993V3.59999C250.981 3.59999 261.475 13.9424 261.226 26.2414L264.226 26.302L267.225 26.3626C267.544 10.5456 254.182 -2.40001 238.524 -2.40001V0.599993ZM264.226 26.302L261.226 26.2711C261.101 38.3853 251.094 48.152 239.092 48.152V51.152V54.152C254.353 54.152 267.066 41.7667 267.225 26.3329L264.226 26.302ZM239.092 51.152V48.152H227.874V51.152V54.152H239.092V51.152ZM227.874 51.152V48.152C227.872 48.152 227.871 48.152 227.87 48.152C227.869 48.152 227.868 48.152 227.867 48.152C227.866 48.152 227.865 48.152 227.864 48.152C227.862 48.152 227.861 48.152 227.86 48.152C227.859 48.152 227.858 48.152 227.857 48.152C227.856 48.152 227.855 48.152 227.854 48.152C227.852 48.152 227.851 48.152 227.85 48.152C227.849 48.152 227.848 48.152 227.847 48.152C227.846 48.152 227.845 48.152 227.843 48.152C227.842 48.152 227.841 48.152 227.84 48.152C227.839 48.152 227.838 48.152 227.837 48.152C227.836 48.152 227.835 48.152 227.833 48.152C227.832 48.152 227.831 48.152 227.83 48.152C227.829 48.152 227.828 48.152 227.827 48.152C227.826 48.152 227.824 48.152 227.823 48.152C227.822 48.152 227.821 48.152 227.82 48.152C227.819 48.152 227.818 48.152 227.817 48.152C227.815 48.152 227.814 48.152 227.813 48.152C227.812 48.152 227.811 48.152 227.81 48.152C227.809 48.152 227.807 48.152 227.806 48.152C227.805 48.152 227.804 48.152 227.803 48.152C227.802 48.152 227.801 48.152 227.8 48.152C227.798 48.152 227.797 48.152 227.796 48.152C227.795 48.152 227.794 48.152 227.793 48.152C227.792 48.152 227.79 48.152 227.789 48.152C227.788 48.152 227.787 48.152 227.786 48.152C227.785 48.152 227.784 48.152 227.783 48.152C227.781 48.152 227.78 48.152 227.779 48.152C227.778 48.152 227.777 48.152 227.776 48.152C227.775 48.152 227.773 48.152 227.772 48.152C227.771 48.152 227.77 48.152 227.769 48.152C227.768 48.152 227.767 48.152 227.765 48.152C227.764 48.152 227.763 48.152 227.762 48.152C227.761 48.152 227.76 48.152 227.759 48.152C227.757 48.152 227.756 48.152 227.755 48.152C227.754 48.152 227.753 48.152 227.752 48.152C227.751 48.152 227.749 48.152 227.748 48.152C227.747 48.152 227.746 48.152 227.745 48.152C227.744 48.152 227.743 48.152 227.741 48.152C227.74 48.152 227.739 48.152 227.738 48.152C227.737 48.152 227.736 48.152 227.735 48.152C227.733 48.152 227.732 48.152 227.731 48.152C227.73 48.152 227.729 48.152 227.728 48.152C227.726 48.152 227.725 48.152 227.724 48.152C227.723 48.152 227.722 48.152 227.721 48.152C227.72 48.152 227.718 48.152 227.717 48.152C227.716 48.152 227.715 48.152 227.714 48.152C227.713 48.152 227.711 48.152 227.71 48.152C227.709 48.152 227.708 48.152 227.707 48.152C227.706 48.152 227.704 48.152 227.703 48.152C227.702 48.152 227.701 48.152 227.7 48.152C227.699 48.152 227.698 48.152 227.696 48.152C227.695 48.152 227.694 48.152 227.693 48.152C227.692 48.152 227.691 48.152 227.689 48.152C227.688 48.152 227.687 48.152 227.686 48.152C227.685 48.152 227.684 48.152 227.682 48.152C227.681 48.152 227.68 48.152 227.679 48.152C227.678 48.152 227.677 48.152 227.675 48.152C227.674 48.152 227.673 48.152 227.672 48.152C227.671 48.152 227.67 48.152 227.668 48.152C227.667 48.152 227.666 48.152 227.665 48.152C227.664 48.152 227.663 48.152 227.661 48.152C227.66 48.152 227.659 48.152 227.658 48.152C227.657 48.152 227.656 48.152 227.654 48.152C227.653 48.152 227.652 48.152 227.651 48.152C227.65 48.152 227.649 48.152 227.647 48.152C227.646 48.152 227.645 48.152 227.644 48.152C227.643 48.152 227.642 48.152 227.64 48.152C227.639 48.152 227.638 48.152 227.637 48.152C227.636 48.152 227.635 48.152 227.633 48.152C227.632 48.152 227.631 48.152 227.63 48.152C227.629 48.152 227.627 48.152 227.626 48.152C227.625 48.152 227.624 48.152 227.623 48.152C227.622 48.152 227.62 48.152 227.619 48.152C227.618 48.152 227.617 48.152 227.616 48.152C227.615 48.152 227.613 48.152 227.612 48.152C227.611 48.152 227.61 48.152 227.609 48.152C227.607 48.152 227.606 48.152 227.605 48.152C227.604 48.152 227.603 48.152 227.602 48.152C227.6 48.152 227.599 48.152 227.598 48.152C227.597 48.152 227.596 48.152 227.594 48.152C227.593 48.152 227.592 48.152 227.591 48.152C227.59 48.152 227.589 48.152 227.587 48.152C227.586 48.152 227.585 48.152 227.584 48.152C227.583 48.152 227.581 48.152 227.58 48.152C227.579 48.152 227.578 48.152 227.577 48.152C227.575 48.152 227.574 48.152 227.573 48.152C227.572 48.152 227.571 48.152 227.57 48.152C227.568 48.152 227.567 48.152 227.566 48.152C227.565 48.152 227.564 48.152 227.562 48.152C227.561 48.152 227.56 48.152 227.559 48.152C227.558 48.152 227.556 48.152 227.555 48.152C227.554 48.152 227.553 48.152 227.552 48.152C227.55 48.152 227.549 48.152 227.548 48.152C227.547 48.152 227.546 48.152 227.545 48.152C227.543 48.152 227.542 48.152 227.541 48.152C227.54 48.152 227.539 48.152 227.537 48.152C227.536 48.152 227.535 48.152 227.534 48.152C227.533 48.152 227.531 48.152 227.53 48.152C227.529 48.152 227.528 48.152 227.527 48.152C227.525 48.152 227.524 48.152 227.523 48.152C227.522 48.152 227.521 48.152 227.519 48.152C227.518 48.152 227.517 48.152 227.516 48.152C227.515 48.152 227.513 48.152 227.512 48.152C227.511 48.152 227.51 48.152 227.509 48.152C227.507 48.152 227.506 48.152 227.505 48.152C227.504 48.152 227.503 48.152 227.501 48.152C227.5 48.152 227.499 48.152 227.498 48.152C227.497 48.152 227.495 48.152 227.494 48.152C227.493 48.152 227.492 48.152 227.491 48.152C227.489 48.152 227.488 48.152 227.487 48.152C227.486 48.152 227.485 48.152 227.483 48.152C227.482 48.152 227.481 48.152 227.48 48.152C227.479 48.152 227.477 48.152 227.476 48.152C227.475 48.152 227.474 48.152 227.473 48.152C227.471 48.152 227.47 48.152 227.469 48.152C227.468 48.152 227.467 48.152 227.465 48.152C227.464 48.152 227.463 48.152 227.462 48.152C227.46 48.152 227.459 48.152 227.458 48.152C227.457 48.152 227.456 48.152 227.454 48.152C227.453 48.152 227.452 48.152 227.451 48.152C227.45 48.152 227.448 48.152 227.447 48.152C227.446 48.152 227.445 48.152 227.444 48.152C227.442 48.152 227.441 48.152 227.44 48.152C227.439 48.152 227.437 48.152 227.436 48.152C227.435 48.152 227.434 48.152 227.433 48.152C227.431 48.152 227.43 48.152 227.429 48.152C227.428 48.152 227.427 48.152 227.425 48.152C227.424 48.152 227.423 48.152 227.422 48.152C227.421 48.152 227.419 48.152 227.418 48.152C227.417 48.152 227.416 48.152 227.414 48.152C227.413 48.152 227.412 48.152 227.411 48.152C227.41 48.152 227.408 48.152 227.407 48.152C227.406 48.152 227.405 48.152 227.403 48.152C227.402 48.152 227.401 48.152 227.4 48.152C227.399 48.152 227.397 48.152 227.396 48.152C227.395 48.152 227.394 48.152 227.393 48.152C227.391 48.152 227.39 48.152 227.389 48.152C227.388 48.152 227.386 48.152 227.385 48.152C227.384 48.152 227.383 48.152 227.382 48.152C227.38 48.152 227.379 48.152 227.378 48.152C227.377 48.152 227.375 48.152 227.374 48.152C227.373 48.152 227.372 48.152 227.371 48.152C227.369 48.152 227.368 48.152 227.367 48.152C227.366 48.152 227.364 48.152 227.363 48.152C227.362 48.152 227.361 48.152 227.36 48.152C227.358 48.152 227.357 48.152 227.356 48.152C227.355 48.152 227.353 48.152 227.352 48.152C227.351 48.152 227.35 48.152 227.349 48.152C227.347 48.152 227.346 48.152 227.345 48.152C227.344 48.152 227.342 48.152 227.341 48.152C227.34 48.152 227.339 48.152 227.338 48.152C227.336 48.152 227.335 48.152 227.334 48.152C227.333 48.152 227.331 48.152 227.33 48.152C227.329 48.152 227.328 48.152 227.327 48.152C227.325 48.152 227.324 48.152 227.323 48.152C227.322 48.152 227.32 48.152 227.319 48.152C227.318 48.152 227.317 48.152 227.315 48.152C227.314 48.152 227.313 48.152 227.312 48.152C227.311 48.152 227.309 48.152 227.308 48.152C227.307 48.152 227.306 48.152 227.304 48.152C227.303 48.152 227.302 48.152 227.301 48.152C227.3 48.152 227.298 48.152 227.297 48.152C227.296 48.152 227.295 48.152 227.293 48.152C227.292 48.152 227.291 48.152 227.29 48.152C227.288 48.152 227.287 48.152 227.286 48.152C227.285 48.152 227.284 48.152 227.282 48.152C227.281 48.152 227.28 48.152 227.279 48.152C227.277 48.152 227.276 48.152 227.275 48.152C227.274 48.152 227.272 48.152 227.271 48.152C227.27 48.152 227.269 48.152 227.268 48.152C227.266 48.152 227.265 48.152 227.264 48.152C227.263 48.152 227.261 48.152 227.26 48.152C227.259 48.152 227.258 48.152 227.256 48.152C227.255 48.152 227.254 48.152 227.253 48.152C227.251 48.152 227.25 48.152 227.249 48.152C227.248 48.152 227.247 48.152 227.245 48.152C227.244 48.152 227.243 48.152 227.242 48.152C227.24 48.152 227.239 48.152 227.238 48.152C227.237 48.152 227.235 48.152 227.234 48.152C227.233 48.152 227.232 48.152 227.23 48.152C227.229 48.152 227.228 48.152 227.227 48.152C227.226 48.152 227.224 48.152 227.223 48.152C227.222 48.152 227.221 48.152 227.219 48.152C227.218 48.152 227.217 48.152 227.216 48.152C227.214 48.152 227.213 48.152 227.212 48.152C227.211 48.152 227.209 48.152 227.208 48.152C227.207 48.152 227.206 48.152 227.204 48.152C227.203 48.152 227.202 48.152 227.201 48.152C227.2 48.152 227.198 48.152 227.197 48.152C227.196 48.152 227.195 48.152 227.193 48.152C227.192 48.152 227.191 48.152 227.19 48.152C227.188 48.152 227.187 48.152 227.186 48.152C227.185 48.152 227.183 48.152 227.182 48.152C227.181 48.152 227.18 48.152 227.178 48.152C227.177 48.152 227.176 48.152 227.175 48.152C227.174 48.152 227.172 48.152 227.171 48.152C227.17 48.152 227.169 48.152 227.167 48.152C227.166 48.152 227.165 48.152 227.164 48.152C227.162 48.152 227.161 48.152 227.16 48.152C227.159 48.152 227.157 48.152 227.156 48.152C227.155 48.152 227.154 48.152 227.152 48.152C227.151 48.152 227.15 48.152 227.149 48.152C227.147 48.152 227.146 48.152 227.145 48.152C227.144 48.152 227.142 48.152 227.141 48.152C227.14 48.152 227.139 48.152 227.137 48.152C227.136 48.152 227.135 48.152 227.134 48.152C227.133 48.152 227.131 48.152 227.13 48.152C227.129 48.152 227.128 48.152 227.126 48.152C227.125 48.152 227.124 48.152 227.123 48.152C227.121 48.152 227.12 48.152 227.119 48.152C227.118 48.152 227.116 48.152 227.115 48.152C227.114 48.152 227.113 48.152 227.111 48.152C227.11 48.152 227.109 48.152 227.108 48.152C227.106 48.152 227.105 48.152 227.104 48.152C227.103 48.152 227.101 48.152 227.1 48.152C227.099 48.152 227.098 48.152 227.096 48.152C227.095 48.152 227.094 48.152 227.093 48.152C227.091 48.152 227.09 48.152 227.089 48.152C227.088 48.152 227.086 48.152 227.085 48.152C227.084 48.152 227.083 48.152 227.081 48.152C227.08 48.152 227.079 48.152 227.078 48.152C227.077 48.152 227.075 48.152 227.074 48.152C227.073 48.152 227.072 48.152 227.07 48.152C227.069 48.152 227.068 48.152 227.067 48.152C227.065 48.152 227.064 48.152 227.063 48.152C227.062 48.152 227.06 48.152 227.059 48.152C227.058 48.152 227.057 48.152 227.055 48.152C227.054 48.152 227.053 48.152 227.052 48.152C227.05 48.152 227.049 48.152 227.048 48.152C227.047 48.152 227.045 48.152 227.044 48.152C227.043 48.152 227.042 48.152 227.04 48.152C227.039 48.152 227.038 48.152 227.037 48.152C227.035 48.152 227.034 48.152 227.033 48.152C227.032 48.152 227.03 48.152 227.029 48.152C227.028 48.152 227.027 48.152 227.025 48.152C227.024 48.152 227.023 48.152 227.022 48.152C227.02 48.152 227.019 48.152 227.018 48.152C227.017 48.152 227.015 48.152 227.014 48.152C227.013 48.152 227.012 48.152 227.01 48.152C227.009 48.152 227.008 48.152 227.007 48.152C227.005 48.152 227.004 48.152 227.003 48.152C227.002 48.152 227 48.152 226.999 48.152C226.998 48.152 226.997 48.152 226.995 48.152C226.994 48.152 226.993 48.152 226.992 48.152C226.99 48.152 226.989 48.152 226.988 48.152C226.987 48.152 226.985 48.152 226.984 48.152C226.983 48.152 226.982 48.152 226.98 48.152C226.979 48.152 226.978 48.152 226.977 48.152C226.976 48.152 226.974 48.152 226.973 48.152C226.972 48.152 226.971 48.152 226.969 48.152C226.968 48.152 226.967 48.152 226.966 48.152C226.964 48.152 226.963 48.152 226.962 48.152C226.961 48.152 226.959 48.152 226.958 48.152C226.957 48.152 226.956 48.152 226.954 48.152C226.953 48.152 226.952 48.152 226.951 48.152C226.949 48.152 226.948 48.152 226.947 48.152C226.946 48.152 226.944 48.152 226.943 48.152C226.942 48.152 226.941 48.152 226.939 48.152C226.938 48.152 226.937 48.152 226.936 48.152C226.934 48.152 226.933 48.152 226.932 48.152C226.931 48.152 226.929 48.152 226.928 48.152C226.927 48.152 226.926 48.152 226.924 48.152C226.923 48.152 226.922 48.152 226.921 48.152C226.919 48.152 226.918 48.152 226.917 48.152C226.916 48.152 226.914 48.152 226.913 48.152C226.912 48.152 226.911 48.152 226.909 48.152C226.908 48.152 226.907 48.152 226.906 48.152C226.904 48.152 226.903 48.152 226.902 48.152C226.901 48.152 226.899 48.152 226.898 48.152C226.897 48.152 226.896 48.152 226.894 48.152C226.893 48.152 226.892 48.152 226.891 48.152C226.889 48.152 226.888 48.152 226.887 48.152C226.886 48.152 226.884 48.152 226.883 48.152C226.882 48.152 226.881 48.152 226.879 48.152C226.878 48.152 226.877 48.152 226.876 48.152C226.874 48.152 226.873 48.152 226.872 48.152C226.871 48.152 226.869 48.152 226.868 48.152C226.867 48.152 226.866 48.152 226.864 48.152C226.863 48.152 226.862 48.152 226.861 48.152C226.859 48.152 226.858 48.152 226.857 48.152C226.856 48.152 226.854 48.152 226.853 48.152C226.852 48.152 226.851 48.152 226.85 48.152C226.848 48.152 226.847 48.152 226.846 48.152C226.845 48.152 226.843 48.152 226.842 48.152C226.841 48.152 226.84 48.152 226.838 48.152C226.837 48.152 226.836 48.152 226.835 48.152C226.833 48.152 226.832 48.152 226.831 48.152C226.83 48.152 226.828 48.152 226.827 48.152C226.826 48.152 226.825 48.152 226.823 48.152C226.822 48.152 226.821 48.152 226.82 48.152C226.818 48.152 226.817 48.152 226.816 48.152C226.815 48.152 226.813 48.152 226.812 48.152C226.811 48.152 226.81 48.152 226.808 48.152C226.807 48.152 226.806 48.152 226.805 48.152C226.803 48.152 226.802 48.152 226.801 48.152C226.8 48.152 226.798 48.152 226.797 48.152C226.796 48.152 226.795 48.152 226.793 48.152C226.792 48.152 226.791 48.152 226.79 48.152C226.788 48.152 226.787 48.152 226.786 48.152C226.785 48.152 226.783 48.152 226.782 48.152C226.781 48.152 226.78 48.152 226.779 48.152C226.777 48.152 226.776 48.152 226.775 48.152C226.774 48.152 226.772 48.152 226.771 48.152C226.77 48.152 226.769 48.152 226.767 48.152C226.766 48.152 226.765 48.152 226.764 48.152C226.762 48.152 226.761 48.152 226.76 48.152C226.759 48.152 226.757 48.152 226.756 48.152C226.755 48.152 226.754 48.152 226.752 48.152C226.751 48.152 226.75 48.152 226.749 48.152C226.747 48.152 226.746 48.152 226.745 48.152C226.744 48.152 226.742 48.152 226.741 48.152C226.74 48.152 226.739 48.152 226.738 48.152C226.736 48.152 226.735 48.152 226.734 48.152C226.733 48.152 226.731 48.152 226.73 48.152C226.729 48.152 226.728 48.152 226.726 48.152C226.725 48.152 226.724 48.152 226.723 48.152C226.721 48.152 226.72 48.152 226.719 48.152C226.718 48.152 226.716 48.152 226.715 48.152C226.714 48.152 226.713 48.152 226.711 48.152C226.71 48.152 226.709 48.152 226.708 48.152C226.707 48.152 226.705 48.152 226.704 48.152C226.703 48.152 226.702 48.152 226.7 48.152C226.699 48.152 226.698 48.152 226.697 48.152C226.695 48.152 226.694 48.152 226.693 48.152C226.692 48.152 226.69 48.152 226.689 48.152C226.688 48.152 226.687 48.152 226.685 48.152C226.684 48.152 226.683 48.152 226.682 48.152C226.681 48.152 226.679 48.152 226.678 48.152C226.677 48.152 226.676 48.152 226.674 48.152C226.673 48.152 226.672 48.152 226.671 48.152C226.669 48.152 226.668 48.152 226.667 48.152C226.666 48.152 226.664 48.152 226.663 48.152C226.662 48.152 226.661 48.152 226.66 48.152C226.658 48.152 226.657 48.152 226.656 48.152C226.655 48.152 226.653 48.152 226.652 48.152C226.651 48.152 226.65 48.152 226.648 48.152C226.647 48.152 226.646 48.152 226.645 48.152C226.643 48.152 226.642 48.152 226.641 48.152C226.64 48.152 226.639 48.152 226.637 48.152C226.636 48.152 226.635 48.152 226.634 48.152C226.632 48.152 226.631 48.152 226.63 48.152C226.629 48.152 226.627 48.152 226.626 48.152C226.625 48.152 226.624 48.152 226.623 48.152C226.621 48.152 226.62 48.152 226.619 48.152C226.618 48.152 226.616 48.152 226.615 48.152C226.614 48.152 226.613 48.152 226.611 48.152C226.61 48.152 226.609 48.152 226.608 48.152C226.607 48.152 226.605 48.152 226.604 48.152C226.603 48.152 226.602 48.152 226.6 48.152C226.599 48.152 226.598 48.152 226.597 48.152C226.595 48.152 226.594 48.152 226.593 48.152C226.592 48.152 226.591 48.152 226.589 48.152C226.588 48.152 226.587 48.152 226.586 48.152C226.584 48.152 226.583 48.152 226.582 48.152C226.581 48.152 226.579 48.152 226.578 48.152C226.577 48.152 226.576 48.152 226.575 48.152C226.573 48.152 226.572 48.152 226.571 48.152C226.57 48.152 226.568 48.152 226.567 48.152C226.566 48.152 226.565 48.152 226.564 48.152C226.562 48.152 226.561 48.152 226.56 48.152C226.559 48.152 226.557 48.152 226.556 48.152C226.555 48.152 226.554 48.152 226.553 48.152C226.551 48.152 226.55 48.152 226.549 48.152C226.548 48.152 226.546 48.152 226.545 48.152C226.544 48.152 226.543 48.152 226.542 48.152C226.54 48.152 226.539 48.152 226.538 48.152C226.537 48.152 226.535 48.152 226.534 48.152C226.533 48.152 226.532 48.152 226.531 48.152C226.529 48.152 226.528 48.152 226.527 48.152C226.526 48.152 226.524 48.152 226.523 48.152C226.522 48.152 226.521 48.152 226.52 48.152C226.518 48.152 226.517 48.152 226.516 48.152C226.515 48.152 226.513 48.152 226.512 48.152C226.511 48.152 226.51 48.152 226.509 48.152C226.507 48.152 226.506 48.152 226.505 48.152C226.504 48.152 226.502 48.152 226.501 48.152C226.5 48.152 226.499 48.152 226.498 48.152C226.496 48.152 226.495 48.152 226.494 48.152C226.493 48.152 226.492 48.152 226.49 48.152C226.489 48.152 226.488 48.152 226.487 48.152C226.485 48.152 226.484 48.152 226.483 48.152C226.482 48.152 226.481 48.152 226.479 48.152C226.478 48.152 226.477 48.152 226.476 48.152C226.475 48.152 226.473 48.152 226.472 48.152C226.471 48.152 226.47 48.152 226.468 48.152C226.467 48.152 226.466 48.152 226.465 48.152C226.464 48.152 226.462 48.152 226.461 48.152C226.46 48.152 226.459 48.152 226.458 48.152C226.456 48.152 226.455 48.152 226.454 48.152C226.453 48.152 226.452 48.152 226.45 48.152C226.449 48.152 226.448 48.152 226.447 48.152C226.445 48.152 226.444 48.152 226.443 48.152C226.442 48.152 226.441 48.152 226.439 48.152C226.438 48.152 226.437 48.152 226.436 48.152C226.435 48.152 226.433 48.152 226.432 48.152C226.431 48.152 226.43 48.152 226.429 48.152C226.427 48.152 226.426 48.152 226.425 48.152C226.424 48.152 226.423 48.152 226.421 48.152C226.42 48.152 226.419 48.152 226.418 48.152C226.417 48.152 226.415 48.152 226.414 48.152C226.413 48.152 226.412 48.152 226.41 48.152C226.409 48.152 226.408 48.152 226.407 48.152C226.406 48.152 226.404 48.152 226.403 48.152C226.402 48.152 226.401 48.152 226.4 48.152C226.398 48.152 226.397 48.152 226.396 48.152C226.395 48.152 226.394 48.152 226.392 48.152C226.391 48.152 226.39 48.152 226.389 48.152C226.388 48.152 226.386 48.152 226.385 48.152C226.384 48.152 226.383 48.152 226.382 48.152C226.38 48.152 226.379 48.152 226.378 48.152C226.377 48.152 226.376 48.152 226.374 48.152C226.373 48.152 226.372 48.152 226.371 48.152C226.37 48.152 226.369 48.152 226.367 48.152C226.366 48.152 226.365 48.152 226.364 48.152C226.363 48.152 226.361 48.152 226.36 48.152C226.359 48.152 226.358 48.152 226.357 48.152C226.355 48.152 226.354 48.152 226.353 48.152C226.352 48.152 226.351 48.152 226.349 48.152C226.348 48.152 226.347 48.152 226.346 48.152C226.345 48.152 226.343 48.152 226.342 48.152C226.341 48.152 226.34 48.152 226.339 48.152C226.338 48.152 226.336 48.152 226.335 48.152C226.334 48.152 226.333 48.152 226.332 48.152C226.33 48.152 226.329 48.152 226.328 48.152C226.327 48.152 226.326 48.152 226.324 48.152C226.323 48.152 226.322 48.152 226.321 48.152C226.32 48.152 226.319 48.152 226.317 48.152C226.316 48.152 226.315 48.152 226.314 48.152C226.313 48.152 226.311 48.152 226.31 48.152C226.309 48.152 226.308 48.152 226.307 48.152C226.305 48.152 226.304 48.152 226.303 48.152C226.302 48.152 226.301 48.152 226.3 48.152C226.298 48.152 226.297 48.152 226.296 48.152C226.295 48.152 226.294 48.152 226.292 48.152C226.291 48.152 226.29 48.152 226.289 48.152C226.288 48.152 226.287 48.152 226.285 48.152C226.284 48.152 226.283 48.152 226.282 48.152C226.281 48.152 226.28 48.152 226.278 48.152C226.277 48.152 226.276 48.152 226.275 48.152C226.274 48.152 226.272 48.152 226.271 48.152C226.27 48.152 226.269 48.152 226.268 48.152C226.267 48.152 226.265 48.152 226.264 48.152C226.263 48.152 226.262 48.152 226.261 48.152C226.26 48.152 226.258 48.152 226.257 48.152C226.256 48.152 226.255 48.152 226.254 48.152C226.253 48.152 226.251 48.152 226.25 48.152C226.249 48.152 226.248 48.152 226.247 48.152C226.245 48.152 226.244 48.152 226.243 48.152C226.242 48.152 226.241 48.152 226.24 48.152C226.238 48.152 226.237 48.152 226.236 48.152C226.235 48.152 226.234 48.152 226.233 48.152C226.231 48.152 226.23 48.152 226.229 48.152C226.228 48.152 226.227 48.152 226.226 48.152C226.224 48.152 226.223 48.152 226.222 48.152C226.221 48.152 226.22 48.152 226.219 48.152C226.217 48.152 226.216 48.152 226.215 48.152C226.214 48.152 226.213 48.152 226.212 48.152C226.211 48.152 226.209 48.152 226.208 48.152C226.207 48.152 226.206 48.152 226.205 48.152C226.204 48.152 226.202 48.152 226.201 48.152C226.2 48.152 226.199 48.152 226.198 48.152C226.197 48.152 226.195 48.152 226.194 48.152C226.193 48.152 226.192 48.152 226.191 48.152C226.19 48.152 226.188 48.152 226.187 48.152C226.186 48.152 226.185 48.152 226.184 48.152C226.183 48.152 226.182 48.152 226.18 48.152C226.179 48.152 226.178 48.152 226.177 48.152C226.176 48.152 226.175 48.152 226.173 48.152C226.172 48.152 226.171 48.152 226.17 48.152C226.169 48.152 226.168 48.152 226.167 48.152C226.165 48.152 226.164 48.152 226.163 48.152C226.162 48.152 226.161 48.152 226.16 48.152C226.159 48.152 226.157 48.152 226.156 48.152C226.155 48.152 226.154 48.152 226.153 48.152C226.152 48.152 226.151 48.152 226.149 48.152C226.148 48.152 226.147 48.152 226.146 48.152C226.145 48.152 226.144 48.152 226.143 48.152C226.141 48.152 226.14 48.152 226.139 48.152C226.138 48.152 226.137 48.152 226.136 48.152C226.135 48.152 226.133 48.152 226.132 48.152C226.131 48.152 226.13 48.152 226.129 48.152C226.128 48.152 226.127 48.152 226.125 48.152C226.124 48.152 226.123 48.152 226.122 48.152C226.121 48.152 226.12 48.152 226.119 48.152C226.117 48.152 226.116 48.152 226.115 48.152C226.114 48.152 226.113 48.152 226.112 48.152C226.111 48.152 226.109 48.152 226.108 48.152C226.107 48.152 226.106 48.152 226.105 48.152C226.104 48.152 226.103 48.152 226.102 48.152C226.1 48.152 226.099 48.152 226.098 48.152C226.097 48.152 226.096 48.152 226.095 48.152C226.094 48.152 226.092 48.152 226.091 48.152C226.09 48.152 226.089 48.152 226.088 48.152C226.087 48.152 226.086 48.152 226.085 48.152C226.083 48.152 226.082 48.152 226.081 48.152C226.08 48.152 226.079 48.152 226.078 48.152C226.077 48.152 226.076 48.152 226.074 48.152C226.073 48.152 226.072 48.152 226.071 48.152C226.07 48.152 226.069 48.152 226.068 48.152C226.067 48.152 226.065 48.152 226.064 48.152C226.063 48.152 226.062 48.152 226.061 48.152C226.06 48.152 226.059 48.152 226.058 48.152C226.057 48.152 226.055 48.152 226.054 48.152C226.053 48.152 226.052 48.152 226.051 48.152C226.05 48.152 226.049 48.152 226.048 48.152C226.046 48.152 226.045 48.152 226.044 48.152C226.043 48.152 226.042 48.152 226.041 48.152C226.04 48.152 226.039 48.152 226.038 48.152C226.036 48.152 226.035 48.152 226.034 48.152C226.033 48.152 226.032 48.152 226.031 48.152C226.03 48.152 226.029 48.152 226.028 48.152V51.152V54.152C226.029 54.152 226.03 54.152 226.031 54.152C226.032 54.152 226.033 54.152 226.034 54.152C226.035 54.152 226.036 54.152 226.038 54.152C226.039 54.152 226.04 54.152 226.041 54.152C226.042 54.152 226.043 54.152 226.044 54.152C226.045 54.152 226.046 54.152 226.048 54.152C226.049 54.152 226.05 54.152 226.051 54.152C226.052 54.152 226.053 54.152 226.054 54.152C226.055 54.152 226.057 54.152 226.058 54.152C226.059 54.152 226.06 54.152 226.061 54.152C226.062 54.152 226.063 54.152 226.064 54.152C226.065 54.152 226.067 54.152 226.068 54.152C226.069 54.152 226.07 54.152 226.071 54.152C226.072 54.152 226.073 54.152 226.074 54.152C226.076 54.152 226.077 54.152 226.078 54.152C226.079 54.152 226.08 54.152 226.081 54.152C226.082 54.152 226.083 54.152 226.085 54.152C226.086 54.152 226.087 54.152 226.088 54.152C226.089 54.152 226.09 54.152 226.091 54.152C226.092 54.152 226.094 54.152 226.095 54.152C226.096 54.152 226.097 54.152 226.098 54.152C226.099 54.152 226.1 54.152 226.102 54.152C226.103 54.152 226.104 54.152 226.105 54.152C226.106 54.152 226.107 54.152 226.108 54.152C226.109 54.152 226.111 54.152 226.112 54.152C226.113 54.152 226.114 54.152 226.115 54.152C226.116 54.152 226.117 54.152 226.119 54.152C226.12 54.152 226.121 54.152 226.122 54.152C226.123 54.152 226.124 54.152 226.125 54.152C226.127 54.152 226.128 54.152 226.129 54.152C226.13 54.152 226.131 54.152 226.132 54.152C226.133 54.152 226.135 54.152 226.136 54.152C226.137 54.152 226.138 54.152 226.139 54.152C226.14 54.152 226.141 54.152 226.143 54.152C226.144 54.152 226.145 54.152 226.146 54.152C226.147 54.152 226.148 54.152 226.149 54.152C226.151 54.152 226.152 54.152 226.153 54.152C226.154 54.152 226.155 54.152 226.156 54.152C226.157 54.152 226.159 54.152 226.16 54.152C226.161 54.152 226.162 54.152 226.163 54.152C226.164 54.152 226.165 54.152 226.167 54.152C226.168 54.152 226.169 54.152 226.17 54.152C226.171 54.152 226.172 54.152 226.173 54.152C226.175 54.152 226.176 54.152 226.177 54.152C226.178 54.152 226.179 54.152 226.18 54.152C226.182 54.152 226.183 54.152 226.184 54.152C226.185 54.152 226.186 54.152 226.187 54.152C226.188 54.152 226.19 54.152 226.191 54.152C226.192 54.152 226.193 54.152 226.194 54.152C226.195 54.152 226.197 54.152 226.198 54.152C226.199 54.152 226.2 54.152 226.201 54.152C226.202 54.152 226.204 54.152 226.205 54.152C226.206 54.152 226.207 54.152 226.208 54.152C226.209 54.152 226.211 54.152 226.212 54.152C226.213 54.152 226.214 54.152 226.215 54.152C226.216 54.152 226.217 54.152 226.219 54.152C226.22 54.152 226.221 54.152 226.222 54.152C226.223 54.152 226.224 54.152 226.226 54.152C226.227 54.152 226.228 54.152 226.229 54.152C226.23 54.152 226.231 54.152 226.233 54.152C226.234 54.152 226.235 54.152 226.236 54.152C226.237 54.152 226.238 54.152 226.24 54.152C226.241 54.152 226.242 54.152 226.243 54.152C226.244 54.152 226.245 54.152 226.247 54.152C226.248 54.152 226.249 54.152 226.25 54.152C226.251 54.152 226.253 54.152 226.254 54.152C226.255 54.152 226.256 54.152 226.257 54.152C226.258 54.152 226.26 54.152 226.261 54.152C226.262 54.152 226.263 54.152 226.264 54.152C226.265 54.152 226.267 54.152 226.268 54.152C226.269 54.152 226.27 54.152 226.271 54.152C226.272 54.152 226.274 54.152 226.275 54.152C226.276 54.152 226.277 54.152 226.278 54.152C226.28 54.152 226.281 54.152 226.282 54.152C226.283 54.152 226.284 54.152 226.285 54.152C226.287 54.152 226.288 54.152 226.289 54.152C226.29 54.152 226.291 54.152 226.292 54.152C226.294 54.152 226.295 54.152 226.296 54.152C226.297 54.152 226.298 54.152 226.3 54.152C226.301 54.152 226.302 54.152 226.303 54.152C226.304 54.152 226.305 54.152 226.307 54.152C226.308 54.152 226.309 54.152 226.31 54.152C226.311 54.152 226.313 54.152 226.314 54.152C226.315 54.152 226.316 54.152 226.317 54.152C226.319 54.152 226.32 54.152 226.321 54.152C226.322 54.152 226.323 54.152 226.324 54.152C226.326 54.152 226.327 54.152 226.328 54.152C226.329 54.152 226.33 54.152 226.332 54.152C226.333 54.152 226.334 54.152 226.335 54.152C226.336 54.152 226.338 54.152 226.339 54.152C226.34 54.152 226.341 54.152 226.342 54.152C226.343 54.152 226.345 54.152 226.346 54.152C226.347 54.152 226.348 54.152 226.349 54.152C226.351 54.152 226.352 54.152 226.353 54.152C226.354 54.152 226.355 54.152 226.357 54.152C226.358 54.152 226.359 54.152 226.36 54.152C226.361 54.152 226.363 54.152 226.364 54.152C226.365 54.152 226.366 54.152 226.367 54.152C226.369 54.152 226.37 54.152 226.371 54.152C226.372 54.152 226.373 54.152 226.374 54.152C226.376 54.152 226.377 54.152 226.378 54.152C226.379 54.152 226.38 54.152 226.382 54.152C226.383 54.152 226.384 54.152 226.385 54.152C226.386 54.152 226.388 54.152 226.389 54.152C226.39 54.152 226.391 54.152 226.392 54.152C226.394 54.152 226.395 54.152 226.396 54.152C226.397 54.152 226.398 54.152 226.4 54.152C226.401 54.152 226.402 54.152 226.403 54.152C226.404 54.152 226.406 54.152 226.407 54.152C226.408 54.152 226.409 54.152 226.41 54.152C226.412 54.152 226.413 54.152 226.414 54.152C226.415 54.152 226.417 54.152 226.418 54.152C226.419 54.152 226.42 54.152 226.421 54.152C226.423 54.152 226.424 54.152 226.425 54.152C226.426 54.152 226.427 54.152 226.429 54.152C226.43 54.152 226.431 54.152 226.432 54.152C226.433 54.152 226.435 54.152 226.436 54.152C226.437 54.152 226.438 54.152 226.439 54.152C226.441 54.152 226.442 54.152 226.443 54.152C226.444 54.152 226.445 54.152 226.447 54.152C226.448 54.152 226.449 54.152 226.45 54.152C226.452 54.152 226.453 54.152 226.454 54.152C226.455 54.152 226.456 54.152 226.458 54.152C226.459 54.152 226.46 54.152 226.461 54.152C226.462 54.152 226.464 54.152 226.465 54.152C226.466 54.152 226.467 54.152 226.468 54.152C226.47 54.152 226.471 54.152 226.472 54.152C226.473 54.152 226.475 54.152 226.476 54.152C226.477 54.152 226.478 54.152 226.479 54.152C226.481 54.152 226.482 54.152 226.483 54.152C226.484 54.152 226.485 54.152 226.487 54.152C226.488 54.152 226.489 54.152 226.49 54.152C226.492 54.152 226.493 54.152 226.494 54.152C226.495 54.152 226.496 54.152 226.498 54.152C226.499 54.152 226.5 54.152 226.501 54.152C226.502 54.152 226.504 54.152 226.505 54.152C226.506 54.152 226.507 54.152 226.509 54.152C226.51 54.152 226.511 54.152 226.512 54.152C226.513 54.152 226.515 54.152 226.516 54.152C226.517 54.152 226.518 54.152 226.52 54.152C226.521 54.152 226.522 54.152 226.523 54.152C226.524 54.152 226.526 54.152 226.527 54.152C226.528 54.152 226.529 54.152 226.531 54.152C226.532 54.152 226.533 54.152 226.534 54.152C226.535 54.152 226.537 54.152 226.538 54.152C226.539 54.152 226.54 54.152 226.542 54.152C226.543 54.152 226.544 54.152 226.545 54.152C226.546 54.152 226.548 54.152 226.549 54.152C226.55 54.152 226.551 54.152 226.553 54.152C226.554 54.152 226.555 54.152 226.556 54.152C226.557 54.152 226.559 54.152 226.56 54.152C226.561 54.152 226.562 54.152 226.564 54.152C226.565 54.152 226.566 54.152 226.567 54.152C226.568 54.152 226.57 54.152 226.571 54.152C226.572 54.152 226.573 54.152 226.575 54.152C226.576 54.152 226.577 54.152 226.578 54.152C226.579 54.152 226.581 54.152 226.582 54.152C226.583 54.152 226.584 54.152 226.586 54.152C226.587 54.152 226.588 54.152 226.589 54.152C226.591 54.152 226.592 54.152 226.593 54.152C226.594 54.152 226.595 54.152 226.597 54.152C226.598 54.152 226.599 54.152 226.6 54.152C226.602 54.152 226.603 54.152 226.604 54.152C226.605 54.152 226.607 54.152 226.608 54.152C226.609 54.152 226.61 54.152 226.611 54.152C226.613 54.152 226.614 54.152 226.615 54.152C226.616 54.152 226.618 54.152 226.619 54.152C226.62 54.152 226.621 54.152 226.623 54.152C226.624 54.152 226.625 54.152 226.626 54.152C226.627 54.152 226.629 54.152 226.63 54.152C226.631 54.152 226.632 54.152 226.634 54.152C226.635 54.152 226.636 54.152 226.637 54.152C226.639 54.152 226.64 54.152 226.641 54.152C226.642 54.152 226.643 54.152 226.645 54.152C226.646 54.152 226.647 54.152 226.648 54.152C226.65 54.152 226.651 54.152 226.652 54.152C226.653 54.152 226.655 54.152 226.656 54.152C226.657 54.152 226.658 54.152 226.66 54.152C226.661 54.152 226.662 54.152 226.663 54.152C226.664 54.152 226.666 54.152 226.667 54.152C226.668 54.152 226.669 54.152 226.671 54.152C226.672 54.152 226.673 54.152 226.674 54.152C226.676 54.152 226.677 54.152 226.678 54.152C226.679 54.152 226.681 54.152 226.682 54.152C226.683 54.152 226.684 54.152 226.685 54.152C226.687 54.152 226.688 54.152 226.689 54.152C226.69 54.152 226.692 54.152 226.693 54.152C226.694 54.152 226.695 54.152 226.697 54.152C226.698 54.152 226.699 54.152 226.7 54.152C226.702 54.152 226.703 54.152 226.704 54.152C226.705 54.152 226.707 54.152 226.708 54.152C226.709 54.152 226.71 54.152 226.711 54.152C226.713 54.152 226.714 54.152 226.715 54.152C226.716 54.152 226.718 54.152 226.719 54.152C226.72 54.152 226.721 54.152 226.723 54.152C226.724 54.152 226.725 54.152 226.726 54.152C226.728 54.152 226.729 54.152 226.73 54.152C226.731 54.152 226.733 54.152 226.734 54.152C226.735 54.152 226.736 54.152 226.738 54.152C226.739 54.152 226.74 54.152 226.741 54.152C226.742 54.152 226.744 54.152 226.745 54.152C226.746 54.152 226.747 54.152 226.749 54.152C226.75 54.152 226.751 54.152 226.752 54.152C226.754 54.152 226.755 54.152 226.756 54.152C226.757 54.152 226.759 54.152 226.76 54.152C226.761 54.152 226.762 54.152 226.764 54.152C226.765 54.152 226.766 54.152 226.767 54.152C226.769 54.152 226.77 54.152 226.771 54.152C226.772 54.152 226.774 54.152 226.775 54.152C226.776 54.152 226.777 54.152 226.779 54.152C226.78 54.152 226.781 54.152 226.782 54.152C226.783 54.152 226.785 54.152 226.786 54.152C226.787 54.152 226.788 54.152 226.79 54.152C226.791 54.152 226.792 54.152 226.793 54.152C226.795 54.152 226.796 54.152 226.797 54.152C226.798 54.152 226.8 54.152 226.801 54.152C226.802 54.152 226.803 54.152 226.805 54.152C226.806 54.152 226.807 54.152 226.808 54.152C226.81 54.152 226.811 54.152 226.812 54.152C226.813 54.152 226.815 54.152 226.816 54.152C226.817 54.152 226.818 54.152 226.82 54.152C226.821 54.152 226.822 54.152 226.823 54.152C226.825 54.152 226.826 54.152 226.827 54.152C226.828 54.152 226.83 54.152 226.831 54.152C226.832 54.152 226.833 54.152 226.835 54.152C226.836 54.152 226.837 54.152 226.838 54.152C226.84 54.152 226.841 54.152 226.842 54.152C226.843 54.152 226.845 54.152 226.846 54.152C226.847 54.152 226.848 54.152 226.85 54.152C226.851 54.152 226.852 54.152 226.853 54.152C226.854 54.152 226.856 54.152 226.857 54.152C226.858 54.152 226.859 54.152 226.861 54.152C226.862 54.152 226.863 54.152 226.864 54.152C226.866 54.152 226.867 54.152 226.868 54.152C226.869 54.152 226.871 54.152 226.872 54.152C226.873 54.152 226.874 54.152 226.876 54.152C226.877 54.152 226.878 54.152 226.879 54.152C226.881 54.152 226.882 54.152 226.883 54.152C226.884 54.152 226.886 54.152 226.887 54.152C226.888 54.152 226.889 54.152 226.891 54.152C226.892 54.152 226.893 54.152 226.894 54.152C226.896 54.152 226.897 54.152 226.898 54.152C226.899 54.152 226.901 54.152 226.902 54.152C226.903 54.152 226.904 54.152 226.906 54.152C226.907 54.152 226.908 54.152 226.909 54.152C226.911 54.152 226.912 54.152 226.913 54.152C226.914 54.152 226.916 54.152 226.917 54.152C226.918 54.152 226.919 54.152 226.921 54.152C226.922 54.152 226.923 54.152 226.924 54.152C226.926 54.152 226.927 54.152 226.928 54.152C226.929 54.152 226.931 54.152 226.932 54.152C226.933 54.152 226.934 54.152 226.936 54.152C226.937 54.152 226.938 54.152 226.939 54.152C226.941 54.152 226.942 54.152 226.943 54.152C226.944 54.152 226.946 54.152 226.947 54.152C226.948 54.152 226.949 54.152 226.951 54.152C226.952 54.152 226.953 54.152 226.954 54.152C226.956 54.152 226.957 54.152 226.958 54.152C226.959 54.152 226.961 54.152 226.962 54.152C226.963 54.152 226.964 54.152 226.966 54.152C226.967 54.152 226.968 54.152 226.969 54.152C226.971 54.152 226.972 54.152 226.973 54.152C226.974 54.152 226.976 54.152 226.977 54.152C226.978 54.152 226.979 54.152 226.98 54.152C226.982 54.152 226.983 54.152 226.984 54.152C226.985 54.152 226.987 54.152 226.988 54.152C226.989 54.152 226.99 54.152 226.992 54.152C226.993 54.152 226.994 54.152 226.995 54.152C226.997 54.152 226.998 54.152 226.999 54.152C227 54.152 227.002 54.152 227.003 54.152C227.004 54.152 227.005 54.152 227.007 54.152C227.008 54.152 227.009 54.152 227.01 54.152C227.012 54.152 227.013 54.152 227.014 54.152C227.015 54.152 227.017 54.152 227.018 54.152C227.019 54.152 227.02 54.152 227.022 54.152C227.023 54.152 227.024 54.152 227.025 54.152C227.027 54.152 227.028 54.152 227.029 54.152C227.03 54.152 227.032 54.152 227.033 54.152C227.034 54.152 227.035 54.152 227.037 54.152C227.038 54.152 227.039 54.152 227.04 54.152C227.042 54.152 227.043 54.152 227.044 54.152C227.045 54.152 227.047 54.152 227.048 54.152C227.049 54.152 227.05 54.152 227.052 54.152C227.053 54.152 227.054 54.152 227.055 54.152C227.057 54.152 227.058 54.152 227.059 54.152C227.06 54.152 227.062 54.152 227.063 54.152C227.064 54.152 227.065 54.152 227.067 54.152C227.068 54.152 227.069 54.152 227.07 54.152C227.072 54.152 227.073 54.152 227.074 54.152C227.075 54.152 227.077 54.152 227.078 54.152C227.079 54.152 227.08 54.152 227.081 54.152C227.083 54.152 227.084 54.152 227.085 54.152C227.086 54.152 227.088 54.152 227.089 54.152C227.09 54.152 227.091 54.152 227.093 54.152C227.094 54.152 227.095 54.152 227.096 54.152C227.098 54.152 227.099 54.152 227.1 54.152C227.101 54.152 227.103 54.152 227.104 54.152C227.105 54.152 227.106 54.152 227.108 54.152C227.109 54.152 227.11 54.152 227.111 54.152C227.113 54.152 227.114 54.152 227.115 54.152C227.116 54.152 227.118 54.152 227.119 54.152C227.12 54.152 227.121 54.152 227.123 54.152C227.124 54.152 227.125 54.152 227.126 54.152C227.128 54.152 227.129 54.152 227.13 54.152C227.131 54.152 227.133 54.152 227.134 54.152C227.135 54.152 227.136 54.152 227.137 54.152C227.139 54.152 227.14 54.152 227.141 54.152C227.142 54.152 227.144 54.152 227.145 54.152C227.146 54.152 227.147 54.152 227.149 54.152C227.15 54.152 227.151 54.152 227.152 54.152C227.154 54.152 227.155 54.152 227.156 54.152C227.157 54.152 227.159 54.152 227.16 54.152C227.161 54.152 227.162 54.152 227.164 54.152C227.165 54.152 227.166 54.152 227.167 54.152C227.169 54.152 227.17 54.152 227.171 54.152C227.172 54.152 227.174 54.152 227.175 54.152C227.176 54.152 227.177 54.152 227.178 54.152C227.18 54.152 227.181 54.152 227.182 54.152C227.183 54.152 227.185 54.152 227.186 54.152C227.187 54.152 227.188 54.152 227.19 54.152C227.191 54.152 227.192 54.152 227.193 54.152C227.195 54.152 227.196 54.152 227.197 54.152C227.198 54.152 227.2 54.152 227.201 54.152C227.202 54.152 227.203 54.152 227.204 54.152C227.206 54.152 227.207 54.152 227.208 54.152C227.209 54.152 227.211 54.152 227.212 54.152C227.213 54.152 227.214 54.152 227.216 54.152C227.217 54.152 227.218 54.152 227.219 54.152C227.221 54.152 227.222 54.152 227.223 54.152C227.224 54.152 227.226 54.152 227.227 54.152C227.228 54.152 227.229 54.152 227.23 54.152C227.232 54.152 227.233 54.152 227.234 54.152C227.235 54.152 227.237 54.152 227.238 54.152C227.239 54.152 227.24 54.152 227.242 54.152C227.243 54.152 227.244 54.152 227.245 54.152C227.247 54.152 227.248 54.152 227.249 54.152C227.25 54.152 227.251 54.152 227.253 54.152C227.254 54.152 227.255 54.152 227.256 54.152C227.258 54.152 227.259 54.152 227.26 54.152C227.261 54.152 227.263 54.152 227.264 54.152C227.265 54.152 227.266 54.152 227.268 54.152C227.269 54.152 227.27 54.152 227.271 54.152C227.272 54.152 227.274 54.152 227.275 54.152C227.276 54.152 227.277 54.152 227.279 54.152C227.28 54.152 227.281 54.152 227.282 54.152C227.284 54.152 227.285 54.152 227.286 54.152C227.287 54.152 227.288 54.152 227.29 54.152C227.291 54.152 227.292 54.152 227.293 54.152C227.295 54.152 227.296 54.152 227.297 54.152C227.298 54.152 227.3 54.152 227.301 54.152C227.302 54.152 227.303 54.152 227.304 54.152C227.306 54.152 227.307 54.152 227.308 54.152C227.309 54.152 227.311 54.152 227.312 54.152C227.313 54.152 227.314 54.152 227.315 54.152C227.317 54.152 227.318 54.152 227.319 54.152C227.32 54.152 227.322 54.152 227.323 54.152C227.324 54.152 227.325 54.152 227.327 54.152C227.328 54.152 227.329 54.152 227.33 54.152C227.331 54.152 227.333 54.152 227.334 54.152C227.335 54.152 227.336 54.152 227.338 54.152C227.339 54.152 227.34 54.152 227.341 54.152C227.342 54.152 227.344 54.152 227.345 54.152C227.346 54.152 227.347 54.152 227.349 54.152C227.35 54.152 227.351 54.152 227.352 54.152C227.353 54.152 227.355 54.152 227.356 54.152C227.357 54.152 227.358 54.152 227.36 54.152C227.361 54.152 227.362 54.152 227.363 54.152C227.364 54.152 227.366 54.152 227.367 54.152C227.368 54.152 227.369 54.152 227.371 54.152C227.372 54.152 227.373 54.152 227.374 54.152C227.375 54.152 227.377 54.152 227.378 54.152C227.379 54.152 227.38 54.152 227.382 54.152C227.383 54.152 227.384 54.152 227.385 54.152C227.386 54.152 227.388 54.152 227.389 54.152C227.39 54.152 227.391 54.152 227.393 54.152C227.394 54.152 227.395 54.152 227.396 54.152C227.397 54.152 227.399 54.152 227.4 54.152C227.401 54.152 227.402 54.152 227.403 54.152C227.405 54.152 227.406 54.152 227.407 54.152C227.408 54.152 227.41 54.152 227.411 54.152C227.412 54.152 227.413 54.152 227.414 54.152C227.416 54.152 227.417 54.152 227.418 54.152C227.419 54.152 227.421 54.152 227.422 54.152C227.423 54.152 227.424 54.152 227.425 54.152C227.427 54.152 227.428 54.152 227.429 54.152C227.43 54.152 227.431 54.152 227.433 54.152C227.434 54.152 227.435 54.152 227.436 54.152C227.437 54.152 227.439 54.152 227.44 54.152C227.441 54.152 227.442 54.152 227.444 54.152C227.445 54.152 227.446 54.152 227.447 54.152C227.448 54.152 227.45 54.152 227.451 54.152C227.452 54.152 227.453 54.152 227.454 54.152C227.456 54.152 227.457 54.152 227.458 54.152C227.459 54.152 227.46 54.152 227.462 54.152C227.463 54.152 227.464 54.152 227.465 54.152C227.467 54.152 227.468 54.152 227.469 54.152C227.47 54.152 227.471 54.152 227.473 54.152C227.474 54.152 227.475 54.152 227.476 54.152C227.477 54.152 227.479 54.152 227.48 54.152C227.481 54.152 227.482 54.152 227.483 54.152C227.485 54.152 227.486 54.152 227.487 54.152C227.488 54.152 227.489 54.152 227.491 54.152C227.492 54.152 227.493 54.152 227.494 54.152C227.495 54.152 227.497 54.152 227.498 54.152C227.499 54.152 227.5 54.152 227.501 54.152C227.503 54.152 227.504 54.152 227.505 54.152C227.506 54.152 227.507 54.152 227.509 54.152C227.51 54.152 227.511 54.152 227.512 54.152C227.513 54.152 227.515 54.152 227.516 54.152C227.517 54.152 227.518 54.152 227.519 54.152C227.521 54.152 227.522 54.152 227.523 54.152C227.524 54.152 227.525 54.152 227.527 54.152C227.528 54.152 227.529 54.152 227.53 54.152C227.531 54.152 227.533 54.152 227.534 54.152C227.535 54.152 227.536 54.152 227.537 54.152C227.539 54.152 227.54 54.152 227.541 54.152C227.542 54.152 227.543 54.152 227.545 54.152C227.546 54.152 227.547 54.152 227.548 54.152C227.549 54.152 227.55 54.152 227.552 54.152C227.553 54.152 227.554 54.152 227.555 54.152C227.556 54.152 227.558 54.152 227.559 54.152C227.56 54.152 227.561 54.152 227.562 54.152C227.564 54.152 227.565 54.152 227.566 54.152C227.567 54.152 227.568 54.152 227.57 54.152C227.571 54.152 227.572 54.152 227.573 54.152C227.574 54.152 227.575 54.152 227.577 54.152C227.578 54.152 227.579 54.152 227.58 54.152C227.581 54.152 227.583 54.152 227.584 54.152C227.585 54.152 227.586 54.152 227.587 54.152C227.589 54.152 227.59 54.152 227.591 54.152C227.592 54.152 227.593 54.152 227.594 54.152C227.596 54.152 227.597 54.152 227.598 54.152C227.599 54.152 227.6 54.152 227.602 54.152C227.603 54.152 227.604 54.152 227.605 54.152C227.606 54.152 227.607 54.152 227.609 54.152C227.61 54.152 227.611 54.152 227.612 54.152C227.613 54.152 227.615 54.152 227.616 54.152C227.617 54.152 227.618 54.152 227.619 54.152C227.62 54.152 227.622 54.152 227.623 54.152C227.624 54.152 227.625 54.152 227.626 54.152C227.627 54.152 227.629 54.152 227.63 54.152C227.631 54.152 227.632 54.152 227.633 54.152C227.635 54.152 227.636 54.152 227.637 54.152C227.638 54.152 227.639 54.152 227.64 54.152C227.642 54.152 227.643 54.152 227.644 54.152C227.645 54.152 227.646 54.152 227.647 54.152C227.649 54.152 227.65 54.152 227.651 54.152C227.652 54.152 227.653 54.152 227.654 54.152C227.656 54.152 227.657 54.152 227.658 54.152C227.659 54.152 227.66 54.152 227.661 54.152C227.663 54.152 227.664 54.152 227.665 54.152C227.666 54.152 227.667 54.152 227.668 54.152C227.67 54.152 227.671 54.152 227.672 54.152C227.673 54.152 227.674 54.152 227.675 54.152C227.677 54.152 227.678 54.152 227.679 54.152C227.68 54.152 227.681 54.152 227.682 54.152C227.684 54.152 227.685 54.152 227.686 54.152C227.687 54.152 227.688 54.152 227.689 54.152C227.691 54.152 227.692 54.152 227.693 54.152C227.694 54.152 227.695 54.152 227.696 54.152C227.698 54.152 227.699 54.152 227.7 54.152C227.701 54.152 227.702 54.152 227.703 54.152C227.704 54.152 227.706 54.152 227.707 54.152C227.708 54.152 227.709 54.152 227.71 54.152C227.711 54.152 227.713 54.152 227.714 54.152C227.715 54.152 227.716 54.152 227.717 54.152C227.718 54.152 227.72 54.152 227.721 54.152C227.722 54.152 227.723 54.152 227.724 54.152C227.725 54.152 227.726 54.152 227.728 54.152C227.729 54.152 227.73 54.152 227.731 54.152C227.732 54.152 227.733 54.152 227.735 54.152C227.736 54.152 227.737 54.152 227.738 54.152C227.739 54.152 227.74 54.152 227.741 54.152C227.743 54.152 227.744 54.152 227.745 54.152C227.746 54.152 227.747 54.152 227.748 54.152C227.749 54.152 227.751 54.152 227.752 54.152C227.753 54.152 227.754 54.152 227.755 54.152C227.756 54.152 227.757 54.152 227.759 54.152C227.76 54.152 227.761 54.152 227.762 54.152C227.763 54.152 227.764 54.152 227.765 54.152C227.767 54.152 227.768 54.152 227.769 54.152C227.77 54.152 227.771 54.152 227.772 54.152C227.773 54.152 227.775 54.152 227.776 54.152C227.777 54.152 227.778 54.152 227.779 54.152C227.78 54.152 227.781 54.152 227.783 54.152C227.784 54.152 227.785 54.152 227.786 54.152C227.787 54.152 227.788 54.152 227.789 54.152C227.79 54.152 227.792 54.152 227.793 54.152C227.794 54.152 227.795 54.152 227.796 54.152C227.797 54.152 227.798 54.152 227.8 54.152C227.801 54.152 227.802 54.152 227.803 54.152C227.804 54.152 227.805 54.152 227.806 54.152C227.807 54.152 227.809 54.152 227.81 54.152C227.811 54.152 227.812 54.152 227.813 54.152C227.814 54.152 227.815 54.152 227.817 54.152C227.818 54.152 227.819 54.152 227.82 54.152C227.821 54.152 227.822 54.152 227.823 54.152C227.824 54.152 227.826 54.152 227.827 54.152C227.828 54.152 227.829 54.152 227.83 54.152C227.831 54.152 227.832 54.152 227.833 54.152C227.835 54.152 227.836 54.152 227.837 54.152C227.838 54.152 227.839 54.152 227.84 54.152C227.841 54.152 227.842 54.152 227.843 54.152C227.845 54.152 227.846 54.152 227.847 54.152C227.848 54.152 227.849 54.152 227.85 54.152C227.851 54.152 227.852 54.152 227.854 54.152C227.855 54.152 227.856 54.152 227.857 54.152C227.858 54.152 227.859 54.152 227.86 54.152C227.861 54.152 227.862 54.152 227.864 54.152C227.865 54.152 227.866 54.152 227.867 54.152C227.868 54.152 227.869 54.152 227.87 54.152C227.871 54.152 227.872 54.152 227.874 54.152V51.152ZM226.028 51.152L224.571 53.7745C225.709 54.4071 226.885 55.1872 228.283 56.1657L230.004 53.708L231.724 51.2503C230.282 50.2408 228.902 49.3169 227.484 48.5295L226.028 51.152ZM230.004 53.708H227.004V53.85H230.004H233.004V53.708H230.004ZM230.004 53.85L228.226 56.267C232.689 59.5486 237.301 64.657 242.039 71.346L244.488 69.612L246.936 67.8779C242.018 60.935 236.974 55.2514 231.781 51.433L230.004 53.85ZM244.488 69.612L242.032 71.3353C250.728 83.7266 258.761 91.2059 264.733 95.6152C267.717 97.8184 270.181 99.2509 271.948 100.145C272.83 100.592 273.541 100.905 274.057 101.113C274.314 101.217 274.529 101.297 274.697 101.356C274.78 101.384 274.863 101.412 274.942 101.436C274.978 101.447 275.034 101.464 275.099 101.48C275.13 101.488 275.188 101.503 275.26 101.518C275.296 101.525 275.357 101.537 275.433 101.548C275.486 101.556 275.653 101.58 275.87 101.58V98.58V95.58C276.085 95.58 276.251 95.604 276.302 95.6114C276.376 95.6222 276.434 95.6337 276.467 95.6405C276.534 95.6542 276.585 95.6671 276.606 95.6726C276.653 95.6848 276.684 95.6944 276.689 95.6959C276.705 95.7007 276.698 95.699 276.665 95.6873C276.601 95.6653 276.48 95.6209 276.302 95.5491C275.948 95.4063 275.392 95.1638 274.657 94.7918C273.189 94.0485 271.011 92.7919 268.297 90.7883C262.874 86.7841 255.288 79.7794 246.943 67.8887L244.488 69.612ZM273.543 0.599993V-2.40001H270.543V0.599993H273.543ZM378.907 0.599993H381.907V-2.40001H378.907V0.599993ZM378.907 18.35L377.317 20.894L381.907 23.7627V18.35H378.907ZM377.771 17.64L379.361 15.096L379.24 15.0204L379.113 14.9567L377.771 17.64ZM335.881 4.292L333.874 2.06211L333.816 2.11489L333.76 2.17068L335.881 4.292ZM333.893 100V103H336.893V100H333.893ZM318.557 100H315.557V103H318.557V100ZM316.427 4.292L318.549 2.17068L318.493 2.11489L318.434 2.06211L316.427 4.292ZM274.537 17.64L273.196 14.9567L272.985 15.062L272.793 15.1988L274.537 17.64ZM273.543 18.35H270.543V24.1796L275.287 20.7912L273.543 18.35ZM273.543 0.599993V3.59999H378.907V0.599993V-2.40001H273.543V0.599993ZM378.907 0.599993H375.907V18.35H378.907H381.907V0.599993H378.907ZM378.907 18.35L380.497 15.806L379.361 15.096L377.771 17.64L376.181 20.184L377.317 20.894L378.907 18.35ZM377.771 17.64L379.113 14.9567C379.421 15.1107 379.628 15.2836 379.673 15.3206C379.751 15.3856 379.809 15.44 379.834 15.4647C379.864 15.4933 379.885 15.5157 379.896 15.5268C379.908 15.5389 379.915 15.5471 379.918 15.5497C379.919 15.5505 379.903 15.533 379.847 15.4691C379.75 15.3587 379.585 15.168 379.377 14.9351C378.955 14.4625 378.341 13.7995 377.532 13.0119C375.915 11.4382 373.526 9.37425 370.318 7.32107C363.885 3.20297 354.208 -0.838001 340.993 -0.838001V2.162V5.162C352.913 5.162 361.482 8.78902 367.084 12.3744C369.893 14.173 371.968 15.9696 373.347 17.3114C374.035 17.9815 374.552 18.54 374.903 18.9332C375.082 19.1333 375.215 19.2866 375.328 19.4165C375.377 19.4727 375.444 19.5493 375.506 19.6165C375.535 19.6478 375.593 19.7105 375.665 19.78C375.701 19.8142 375.766 19.8763 375.852 19.9472C375.904 19.9901 376.117 20.1671 376.43 20.3233L377.771 17.64ZM340.993 2.162V-0.838001C338.079 -0.838001 335.69 0.42803 333.874 2.06211L335.881 4.292L337.888 6.52188C338.912 5.59996 339.932 5.162 340.993 5.162V2.162ZM335.881 4.292L333.76 2.17068C331.851 4.07914 330.893 6.72174 330.893 9.404H333.893H336.893C336.893 8.11026 337.355 7.06085 338.003 6.41332L335.881 4.292ZM333.893 9.404H330.893V100H333.893H336.893V9.404H333.893ZM333.893 100V97H318.557V100V103H333.893V100ZM318.557 100H321.557V9.404H318.557H315.557V100H318.557ZM318.557 9.404H321.557C321.557 6.56834 320.351 3.97341 318.549 2.17068L316.427 4.292L314.306 6.41332C315.059 7.16658 315.557 8.26366 315.557 9.404H318.557ZM316.427 4.292L318.434 2.06211C316.618 0.42803 314.23 -0.838001 311.315 -0.838001V2.162V5.162C312.377 5.162 313.396 5.59996 314.42 6.52188L316.427 4.292ZM311.315 2.162V-0.838001C298.101 -0.838001 288.423 3.20297 281.99 7.32107C278.783 9.37425 276.393 11.4382 274.777 13.0119C273.967 13.7995 273.354 14.4625 272.931 14.9351C272.723 15.168 272.558 15.3587 272.462 15.4691C272.406 15.533 272.39 15.5505 272.391 15.5497C272.393 15.5471 272.401 15.5389 272.412 15.5268C272.423 15.5157 272.445 15.4933 272.474 15.4647C272.5 15.44 272.557 15.3856 272.636 15.3206C272.681 15.2836 272.888 15.1107 273.196 14.9567L274.537 17.64L275.879 20.3233C276.191 20.167 276.404 19.9901 276.456 19.9472C276.542 19.8763 276.608 19.8142 276.643 19.78C276.715 19.7105 276.773 19.6478 276.802 19.6165C276.864 19.5493 276.931 19.4727 276.98 19.4165C277.094 19.2866 277.226 19.1333 277.405 18.9332C277.756 18.54 278.273 17.9815 278.962 17.3114C280.34 15.9696 282.415 14.173 285.225 12.3744C290.826 8.78902 299.396 5.162 311.315 5.162V2.162ZM274.537 17.64L272.793 15.1988L271.799 15.9088L273.543 18.35L275.287 20.7912L276.281 20.0812L274.537 17.64ZM273.543 18.35H276.543V0.599993H273.543H270.543V18.35H273.543ZM387.289 0.599993V-2.40001H384.289V0.599993H387.289ZM461.271 0.599993H464.271V-2.40001H461.271V0.599993ZM461.271 18.35L459.681 20.894L464.271 23.7627V18.35H461.271ZM460.135 17.64L461.725 15.096L460.995 14.64H460.135V17.64ZM448.491 11.676L449.724 8.94123L449.713 8.93619L449.701 8.93124L448.491 11.676ZM402.483 2.162V-0.838001H399.483V2.162H402.483ZM402.483 46.75H399.483V49.75H402.483V46.75ZM433.297 46.75H436.297V43.75H433.297V46.75ZM433.297 48.312V51.312H436.297V48.312H433.297ZM402.483 48.312V45.312H399.483V48.312H402.483ZM402.483 100V103H405.483V100H402.483ZM387.289 100H384.289V103H387.289V100ZM387.289 0.599993V3.59999H461.271V0.599993V-2.40001H387.289V0.599993ZM461.271 0.599993H458.271V18.35H461.271H464.271V0.599993H461.271ZM461.271 18.35L462.861 15.806L461.725 15.096L460.135 17.64L458.545 20.184L459.681 20.894L461.271 18.35ZM460.135 17.64V14.64C460.604 14.64 460.958 14.7556 461.013 14.7725C461.135 14.8103 461.226 14.8476 461.267 14.8644C461.351 14.8996 461.407 14.9285 461.411 14.9302C461.427 14.9382 461.414 14.9321 461.348 14.8955C461.223 14.8261 461.038 14.7204 460.761 14.562C460.222 14.2546 459.43 13.8038 458.41 13.2482C456.37 12.1369 453.426 10.6109 449.724 8.94123L448.491 11.676L447.257 14.4108C450.797 16.0071 453.604 17.463 455.54 18.5173C456.508 19.0445 457.26 19.4723 457.786 19.7728C458.042 19.9184 458.269 20.049 458.433 20.1399C458.511 20.1834 458.612 20.2385 458.709 20.2876C458.753 20.3099 458.843 20.3543 458.952 20.3999C459.004 20.4219 459.106 20.4632 459.237 20.5036C459.3 20.5231 459.66 20.64 460.135 20.64V17.64ZM448.491 11.676L449.701 8.93124C434.816 2.364 418.781 -0.838001 402.483 -0.838001V2.162V5.162C417.992 5.162 433.197 8.20799 447.28 14.4207L448.491 11.676ZM402.483 2.162H399.483V46.75H402.483H405.483V2.162H402.483ZM402.483 46.75V49.75H433.297V46.75V43.75H402.483V46.75ZM433.297 46.75H430.297V48.312H433.297H436.297V46.75H433.297ZM433.297 48.312V45.312H402.483V48.312V51.312H433.297V48.312ZM402.483 48.312H399.483V100H402.483H405.483V48.312H402.483ZM402.483 100V97H387.289V100V103H402.483V100ZM387.289 100H390.289V0.599993H387.289H384.289V100H387.289ZM536.172 15.936L533.649 17.5583L533.745 17.7082L533.859 17.8457L536.172 15.936ZM479.94 89.918L481.947 87.6881L481.821 87.575L481.684 87.4768L479.94 89.918ZM474.97 84.806L477.411 83.0623L477.351 82.9771L477.284 82.8963L474.97 84.806ZM531.202 10.824L529.195 13.0539L529.321 13.167L529.458 13.2652L531.202 10.824ZM531.202 65.21L528.612 63.6971L528.606 63.7075L528.6 63.7178L531.202 65.21ZM535.178 16.93L537.674 15.2659L537.579 15.1231L537.468 14.9922L535.178 16.93ZM530.35 11.96L532.377 9.74853L532.268 9.64868L532.15 9.56001L530.35 11.96ZM528.504 10.682L530.304 8.28199L530.172 8.18308L530.03 8.09922L528.504 10.682ZM479.94 35.532L482.54 37.0294L482.541 37.0274L479.94 35.532ZM476.106 83.812L473.625 85.4981L473.674 85.5711L473.728 85.6411L476.106 83.812ZM480.792 88.782L478.765 90.9935L478.989 91.1984L479.249 91.3545L480.792 88.782ZM482.638 90.06L480.838 92.46L480.996 92.5782L481.167 92.6747L482.638 90.06ZM507.346 88.924L506.005 86.2407L505.988 86.2491L505.971 86.2576L507.346 88.924ZM507.062 39.792L510.051 39.5283L510.049 39.5063L510.046 39.4844L507.062 39.792ZM516.292 49.022L515.952 52.0026L515.968 52.0045L515.985 52.0062L516.292 49.022ZM530.066 50.442L530.374 53.4262V47.4578L530.066 50.442ZM516.292 51.862L516.548 54.851L516.574 54.8488L516.6 54.8462L516.292 51.862ZM507.062 61.092L510.046 61.3996L510.049 61.3739L510.051 61.3482L507.062 61.092ZM505.642 74.866L502.658 75.1736H508.626L505.642 74.866ZM504.222 61.092L507.206 60.7843L507.205 60.7678L507.203 60.7514L504.222 61.092ZM494.992 51.862L494.685 54.8462L494.707 54.8484L494.729 54.8504L494.992 51.862ZM481.218 50.442L480.911 47.4578V53.4262L481.218 50.442ZM494.992 49.022L495.3 52.0062L495.321 52.004L495.343 52.0014L494.992 49.022ZM504.222 39.792L507.202 40.1425L507.204 40.1211L507.206 40.0996L504.222 39.792ZM505.642 26.018L508.626 25.7104H502.658L505.642 26.018ZM536.172 15.936L533.859 17.8457C540.785 26.2376 545.1 37.7692 545.1 50.3H548.1H551.1C551.1 36.4188 546.327 23.5264 538.486 14.0263L536.172 15.936ZM548.1 50.3H545.1C545.1 76.5105 526.989 97 505.642 97V100V103C531.156 103 551.1 78.9015 551.1 50.3H548.1ZM505.642 100V97C496.778 97 488.535 93.6172 481.947 87.6881L479.94 89.918L477.933 92.1479C485.545 98.9988 495.195 103 505.642 103V100ZM479.94 89.918L481.684 87.4768C480.031 86.2962 478.692 84.8556 477.411 83.0623L474.97 84.806L472.529 86.5497C474.088 88.7324 475.873 90.6998 478.196 92.3592L479.94 89.918ZM474.97 84.806L477.284 82.8963C470.374 74.5248 466.184 63.0005 466.184 50.3H463.184H460.184C460.184 64.2955 464.798 77.1952 472.657 86.7157L474.97 84.806ZM463.184 50.3H466.184C466.184 24.2255 484.301 3.59999 505.642 3.59999V0.599993V-2.40001C480.124 -2.40001 460.184 21.8465 460.184 50.3H463.184ZM505.642 0.599993V3.59999C514.33 3.59999 522.579 7.09944 529.195 13.0539L531.202 10.824L533.209 8.59412C525.625 1.76855 515.983 -2.40001 505.642 -2.40001V0.599993ZM531.202 10.824L529.458 13.2652C531.185 14.4983 532.606 15.9362 533.649 17.5583L536.172 15.936L538.696 14.3137C537.182 11.9598 535.196 9.9897 532.946 8.38279L531.202 10.824ZM531.202 65.21L533.793 66.7229C544.472 48.4359 545.941 27.6659 537.674 15.2659L535.178 16.93L532.682 18.5941C539.183 28.3461 538.664 46.4841 528.612 63.6971L531.202 65.21ZM535.178 16.93L537.468 14.9922C535.803 13.0243 534.147 11.3704 532.377 9.74853L530.35 11.96L528.323 14.1715C529.962 15.6736 531.429 17.1437 532.888 18.8678L535.178 16.93ZM530.35 11.96L532.15 9.56001C531.787 9.28778 531.395 9.02744 531.091 8.82485C530.756 8.60144 530.509 8.43577 530.304 8.28199L528.504 10.682L526.704 13.082C527.067 13.3542 527.459 13.6146 527.763 13.8171C528.098 14.0406 528.345 14.2062 528.55 14.36L530.35 11.96ZM528.504 10.682L530.03 8.09922C526.385 5.94518 522.294 4.984 518.138 4.984V7.984V10.984C521.366 10.984 524.375 11.7268 526.978 13.2648L528.504 10.682ZM518.138 7.984V4.984C503.604 4.984 487.44 16.4701 477.339 34.0366L479.94 35.532L482.541 37.0274C492.036 20.5139 506.544 10.984 518.138 10.984V7.984ZM479.94 35.532L477.341 34.0346C466.825 52.2906 465.186 73.0791 473.625 85.4981L476.106 83.812L478.588 82.1259C471.974 72.3929 472.607 54.2734 482.54 37.0294L479.94 35.532ZM476.106 83.812L473.728 85.6411C475.299 87.683 477.003 89.3779 478.765 90.9935L480.792 88.782L482.819 86.5705C481.174 85.0621 479.753 83.633 478.484 81.9829L476.106 83.812ZM480.792 88.782L479.249 91.3545C479.809 91.6909 480.264 92.0293 480.838 92.46L482.638 90.06L484.438 87.66C483.876 87.2387 483.195 86.7251 482.336 86.2095L480.792 88.782ZM482.638 90.06L481.167 92.6747C489.089 97.1306 498.994 96.6059 508.721 91.5904L507.346 88.924L505.971 86.2576C497.522 90.6141 489.819 90.6574 484.109 87.4453L482.638 90.06ZM507.346 88.924L508.688 91.6073C518.682 86.6101 527.462 77.7654 533.805 66.7021L531.202 65.21L528.6 63.7178C522.731 73.9546 514.754 81.8659 506.005 86.2407L507.346 88.924ZM507.062 39.792L504.074 40.0557C504.631 46.369 509.632 51.2804 515.952 52.0026L516.292 49.022L516.633 46.0414C513.012 45.6276 510.346 42.871 510.051 39.5283L507.062 39.792ZM516.292 49.022L515.985 52.0062L529.759 53.4262L530.066 50.442L530.374 47.4578L516.6 46.0378L516.292 49.022ZM530.066 50.442L529.759 47.4578L515.985 48.8778L516.292 51.862L516.6 54.8462L530.374 53.4262L530.066 50.442ZM516.292 51.862L516.036 48.873C509.611 49.4236 504.624 54.4113 504.073 60.8358L507.062 61.092L510.051 61.3482C510.353 57.8327 513.033 55.1524 516.548 54.851L516.292 51.862ZM507.062 61.092L504.078 60.7843L502.658 74.5583L505.642 74.866L508.626 75.1736L510.046 61.3996L507.062 61.092ZM505.642 74.866L508.626 74.5583L507.206 60.7843L504.222 61.092L501.238 61.3996L502.658 75.1736L505.642 74.866ZM504.222 61.092L507.203 60.7514C506.481 54.4322 501.569 49.4307 495.256 48.8736L494.992 51.862L494.729 54.8504C498.071 55.1453 500.828 57.8118 501.242 61.4326L504.222 61.092ZM494.992 51.862L495.3 48.8778L481.526 47.4578L481.218 50.442L480.911 53.4262L494.685 54.8462L494.992 51.862ZM481.218 50.442L481.526 53.4262L495.3 52.0062L494.992 49.022L494.685 46.0378L480.911 47.4578L481.218 50.442ZM494.992 49.022L495.343 52.0014C501.55 51.2712 506.471 46.3497 507.202 40.1425L504.222 39.792L501.243 39.4415C500.837 42.8903 498.091 45.6368 494.642 46.0425L494.992 49.022ZM504.222 39.792L507.206 40.0996L508.626 26.3256L505.642 26.018L502.658 25.7104L501.238 39.4844L504.222 39.792ZM505.642 26.018L502.658 26.3256L504.078 40.0996L507.062 39.792L510.046 39.4844L508.626 25.7104L505.642 26.018ZM635.34 80.546L637.462 82.6673L637.653 82.476L637.807 82.2536L635.34 80.546ZM636.618 78.7H639.618V69.0962L634.152 76.9924L636.618 78.7ZM636.618 100V103H639.618V100H636.618ZM559.796 100H556.796V103H559.796V100ZM559.796 0.599993V-2.40001H556.796V0.599993H559.796ZM574.99 0.599993H577.99V-2.40001H574.99V0.599993ZM574.99 98.58H571.99V101.58H574.99V98.58ZM595.296 97.728L595.736 100.696L595.749 100.694L595.763 100.692L595.296 97.728ZM635.34 80.546L637.807 82.2536L639.085 80.4076L636.618 78.7L634.152 76.9924L632.874 78.8384L635.34 80.546ZM636.618 78.7H633.618V100H636.618H639.618V78.7H636.618ZM636.618 100V97H559.796V100V103H636.618V100ZM559.796 100H562.796V0.599993H559.796H556.796V100H559.796ZM559.796 0.599993V3.59999H574.99V0.599993V-2.40001H559.796V0.599993ZM574.99 0.599993H571.99V98.58H574.99H577.99V0.599993H574.99ZM574.99 98.58V101.58H583.936V98.58V95.58H574.99V98.58ZM583.936 98.58V101.58C587.925 101.58 591.764 101.284 595.736 100.696L595.296 97.728L594.857 94.7604C591.161 95.3079 587.616 95.58 583.936 95.58V98.58ZM595.296 97.728L595.763 100.692C611.444 98.2232 621.788 93.8432 628.304 89.9562C631.559 88.0144 633.845 86.2036 635.355 84.8316C636.661 83.6438 637.873 82.2559 637.462 82.6673L635.34 80.546L633.219 78.4247C632.737 78.9071 632.741 79.0989 631.319 80.3917C630.099 81.5003 628.134 83.0709 625.23 84.8033C619.428 88.2648 609.821 92.4048 594.83 94.7645L595.296 97.728ZM660.551 100V103H663.551V100H660.551ZM645.357 100H642.357V103H645.357V100ZM645.357 0.599993V-2.40001H642.357V0.599993H645.357ZM660.551 0.599993H663.551V-2.40001H660.551V0.599993ZM660.551 100V97H645.357V100V103H660.551V100ZM645.357 100H648.357V0.599993H645.357H642.357V100H645.357ZM645.357 0.599993V3.59999H660.551V0.599993V-2.40001H645.357V0.599993ZM660.551 0.599993H657.551V100H660.551H663.551V0.599993H660.551ZM745.151 15.936L742.627 17.5583L742.724 17.7082L742.837 17.8457L745.151 15.936ZM688.919 89.918L690.926 87.6881L690.8 87.575L690.662 87.4768L688.919 89.918ZM683.949 84.806L686.39 83.0623L686.329 82.9771L686.262 82.8963L683.949 84.806ZM740.181 10.824L738.174 13.0539L738.299 13.167L738.437 13.2652L740.181 10.824ZM740.181 65.21L737.59 63.6971L737.584 63.7075L737.578 63.7178L740.181 65.21ZM744.157 16.93L746.653 15.2659L746.558 15.1231L746.447 14.9922L744.157 16.93ZM739.329 11.96L741.356 9.74853L741.247 9.64868L741.129 9.56001L739.329 11.96ZM737.483 10.682L739.283 8.28199L739.151 8.18308L739.009 8.09922L737.483 10.682ZM688.919 35.532L691.518 37.0294L691.519 37.0274L688.919 35.532ZM685.085 83.812L682.603 85.4981L682.653 85.5711L682.707 85.6411L685.085 83.812ZM689.771 88.782L687.744 90.9935L687.967 91.1984L688.227 91.3545L689.771 88.782ZM691.617 90.06L689.817 92.46L689.974 92.5782L690.146 92.6747L691.617 90.06ZM716.325 88.924L714.983 86.2407L714.966 86.2491L714.95 86.2576L716.325 88.924ZM716.041 39.792L719.029 39.5283L719.027 39.5063L719.025 39.4844L716.041 39.792ZM725.271 49.022L724.93 52.0026L724.947 52.0045L724.963 52.0062L725.271 49.022ZM739.045 50.442L739.352 53.4262V47.4578L739.045 50.442ZM725.271 51.862L725.527 54.851L725.553 54.8488L725.578 54.8462L725.271 51.862ZM716.041 61.092L719.025 61.3996L719.028 61.3739L719.03 61.3482L716.041 61.092ZM714.621 74.866L711.637 75.1736H717.605L714.621 74.866ZM713.201 61.092L716.185 60.7843L716.183 60.7678L716.181 60.7514L713.201 61.092ZM703.971 51.862L703.663 54.8462L703.685 54.8484L703.707 54.8504L703.971 51.862ZM690.197 50.442L689.889 47.4578V53.4262L690.197 50.442ZM703.971 49.022L704.278 52.0062L704.3 52.004L704.321 52.0014L703.971 49.022ZM713.201 39.792L716.18 40.1425L716.183 40.1211L716.185 40.0996L713.201 39.792ZM714.621 26.018L717.605 25.7104H711.637L714.621 26.018ZM745.151 15.936L742.837 17.8457C749.764 26.2376 754.079 37.7692 754.079 50.3H757.079H760.079C760.079 36.4188 755.306 23.5264 747.464 14.0263L745.151 15.936ZM757.079 50.3H754.079C754.079 76.5105 735.967 97 714.621 97V100V103C740.134 103 760.079 78.9015 760.079 50.3H757.079ZM714.621 100V97C705.756 97 697.513 93.6172 690.926 87.6881L688.919 89.918L686.912 92.1479C694.524 98.9988 704.173 103 714.621 103V100ZM688.919 89.918L690.662 87.4768C689.01 86.2962 687.671 84.8556 686.39 83.0623L683.949 84.806L681.508 86.5497C683.067 88.7324 684.852 90.6998 687.175 92.3592L688.919 89.918ZM683.949 84.806L686.262 82.8963C679.353 74.5248 675.163 63.0005 675.163 50.3H672.163H669.163C669.163 64.2955 673.777 77.1952 681.635 86.7157L683.949 84.806ZM672.163 50.3H675.163C675.163 24.2255 693.279 3.59999 714.621 3.59999V0.599993V-2.40001C689.102 -2.40001 669.163 21.8465 669.163 50.3H672.163ZM714.621 0.599993V3.59999C723.308 3.59999 731.558 7.09944 738.174 13.0539L740.181 10.824L742.188 8.59412C734.604 1.76855 724.961 -2.40001 714.621 -2.40001V0.599993ZM740.181 10.824L738.437 13.2652C740.163 14.4983 741.584 15.9362 742.627 17.5583L745.151 15.936L747.674 14.3137C746.161 11.9598 744.174 9.9897 741.924 8.38279L740.181 10.824ZM740.181 65.21L742.771 66.7229C753.451 48.4359 754.919 27.6659 746.653 15.2659L744.157 16.93L741.661 18.5941C748.162 28.3461 747.643 46.4841 737.59 63.6971L740.181 65.21ZM744.157 16.93L746.447 14.9922C744.782 13.0243 743.125 11.3704 741.356 9.74853L739.329 11.96L737.302 14.1715C738.94 15.6736 740.408 17.1437 741.867 18.8678L744.157 16.93ZM739.329 11.96L741.129 9.56001C740.766 9.28778 740.374 9.02744 740.07 8.82485C739.735 8.60144 739.488 8.43577 739.283 8.28199L737.483 10.682L735.683 13.082C736.046 13.3542 736.438 13.6146 736.742 13.8171C737.077 14.0406 737.324 14.2062 737.529 14.36L739.329 11.96ZM737.483 10.682L739.009 8.09922C735.364 5.94518 731.273 4.984 727.117 4.984V7.984V10.984C730.345 10.984 733.354 11.7268 735.957 13.2648L737.483 10.682ZM727.117 7.984V4.984C712.582 4.984 696.419 16.4701 686.318 34.0366L688.919 35.532L691.519 37.0274C701.015 20.5139 715.523 10.984 727.117 10.984V7.984ZM688.919 35.532L686.319 34.0346C675.804 52.2906 674.165 73.0791 682.603 85.4981L685.085 83.812L687.566 82.1259C680.953 72.3929 681.586 54.2734 691.518 37.0294L688.919 35.532ZM685.085 83.812L682.707 85.6411C684.277 87.683 685.981 89.3779 687.744 90.9935L689.771 88.782L691.798 86.5705C690.152 85.0621 688.732 83.633 687.463 81.9829L685.085 83.812ZM689.771 88.782L688.227 91.3545C688.788 91.6909 689.242 92.0293 689.817 92.46L691.617 90.06L693.417 87.66C692.855 87.2387 692.173 86.7251 691.314 86.2095L689.771 88.782ZM691.617 90.06L690.146 92.6747C698.067 97.1306 707.973 96.6059 717.7 91.5904L716.325 88.924L714.95 86.2576C706.501 90.6141 698.798 90.6574 693.087 87.4453L691.617 90.06ZM716.325 88.924L717.666 91.6073C727.661 86.6101 736.44 77.7654 742.783 66.7021L740.181 65.21L737.578 63.7178C731.709 73.9546 723.733 81.8659 714.983 86.2407L716.325 88.924ZM716.041 39.792L713.052 40.0557C713.609 46.369 718.611 51.2804 724.93 52.0026L725.271 49.022L725.611 46.0414C721.991 45.6276 719.324 42.871 719.029 39.5283L716.041 39.792ZM725.271 49.022L724.963 52.0062L738.737 53.4262L739.045 50.442L739.352 47.4578L725.578 46.0378L725.271 49.022ZM739.045 50.442L738.737 47.4578L724.963 48.8778L725.271 51.862L725.578 54.8462L739.352 53.4262L739.045 50.442ZM725.271 51.862L725.015 48.873C718.59 49.4236 713.602 54.4113 713.052 60.8358L716.041 61.092L719.03 61.3482C719.331 57.8327 722.011 55.1524 725.527 54.851L725.271 51.862ZM716.041 61.092L713.057 60.7843L711.637 74.5583L714.621 74.866L717.605 75.1736L719.025 61.3996L716.041 61.092ZM714.621 74.866L717.605 74.5583L716.185 60.7843L713.201 61.092L710.217 61.3996L711.637 75.1736L714.621 74.866ZM713.201 61.092L716.181 60.7514C715.459 54.4322 710.548 49.4307 704.234 48.8736L703.971 51.862L703.707 54.8504C707.05 55.1453 709.806 57.8118 710.22 61.4326L713.201 61.092ZM703.971 51.862L704.278 48.8778L690.504 47.4578L690.197 50.442L689.889 53.4262L703.663 54.8462L703.971 51.862ZM690.197 50.442L690.504 53.4262L704.278 52.0062L703.971 49.022L703.663 46.0378L689.889 47.4578L690.197 50.442ZM703.971 49.022L704.321 52.0014C710.528 51.2712 715.45 46.3497 716.18 40.1425L713.201 39.792L710.221 39.4415C709.815 42.8903 707.069 45.6368 703.62 46.0425L703.971 49.022ZM713.201 39.792L716.185 40.0996L717.605 26.3256L714.621 26.018L711.637 25.7104L710.217 39.4844L713.201 39.792ZM714.621 26.018L711.637 26.3256L713.057 40.0996L716.041 39.792L719.025 39.4844L717.605 25.7104L714.621 26.018Z" fill="#B58A97" mask="url(#path-1-inside-1_205_1248)"/>
</svg>
