<svg width="766" height="110" viewBox="0 0 766 110" fill="none" xmlns="http://www.w3.org/2000/svg">
<g filter="url(#filter0_d_205_1247)">
<path d="M69.704 3.582C80.212 7.558 86.744 17.356 85.892 27.864C85.466 34.112 82.342 40.36 77.94 43.626C77.656 43.91 77.23 44.194 76.946 44.336C71.124 48.454 64.024 50.3 57.066 49.874C56.214 49.732 55.788 49.732 55.788 49.732C35.624 48.738 24.69 56.406 20.004 60.95V100H4.81V0.599993H48.972C52.806 0.599993 56.924 0.741991 60.9 1.30999C64.024 1.736 66.864 2.44599 69.704 3.582ZM74.106 26.16C74.816 16.362 69.562 7.27399 60.474 2.72999C56.64 2.162 52.664 2.162 48.972 2.162H20.004V58.962C22.844 56.548 26.962 53.566 32.926 51.294C33.068 51.294 33.21 51.294 33.494 51.152C37.754 49.732 42.866 48.596 49.114 48.312C55.362 48.028 61.468 45.898 66.438 41.922H66.58C70.698 38.656 73.68 32.55 74.106 26.16ZM164.371 15.936C171.755 24.882 176.299 37.094 176.299 50.3C176.299 77.706 157.271 100 133.841 100C124.185 100 115.239 96.308 108.139 89.918C106.151 88.498 104.589 86.794 103.169 84.806C95.7854 75.86 91.3834 63.648 91.3834 50.3C91.3834 23.036 110.411 0.599993 133.841 0.599993C143.355 0.599993 152.301 4.43399 159.401 10.824C161.389 12.244 163.093 13.948 164.371 15.936ZM159.401 65.21C169.767 47.46 170.761 28.006 163.377 16.93C161.815 15.084 160.253 13.522 158.549 11.96C157.981 11.534 157.271 11.108 156.703 10.682C153.579 8.836 150.029 7.984 146.337 7.984C133.273 7.984 117.937 18.492 108.139 35.532C97.9154 53.282 96.7794 72.736 104.305 83.812C105.725 85.658 107.287 87.22 108.991 88.782C109.701 89.208 110.269 89.634 110.837 90.06C117.653 93.894 126.457 93.61 135.545 88.924C144.917 84.238 153.295 75.86 159.401 65.21ZM135.261 39.792C135.687 44.62 139.521 48.454 144.491 49.022L158.265 50.442L144.491 51.862C139.521 52.288 135.687 56.122 135.261 61.092L133.841 74.866L132.421 61.092C131.853 56.122 128.019 52.288 123.191 51.862L109.417 50.442L123.191 49.022C128.019 48.454 131.853 44.62 132.421 39.792L133.841 26.018L135.261 39.792ZM279.87 98.58L284.414 100H254.452H254.168C254.026 99.858 250.902 97.302 244.654 78.416C241.246 67.766 237.696 61.802 234.146 56.548C233.294 55.412 232.3 54.418 231.164 53.566C231.164 53.566 231.022 53.566 231.022 53.424C228.75 52.004 225.768 51.436 223.07 52.004C218.384 52.856 213.698 54.56 209.438 56.832L208.728 55.554C215.402 52.004 222.786 49.874 230.312 49.732V49.59H232.016C239.258 49.59 246.074 46.324 250.618 40.502C253.316 37.236 255.02 33.26 255.588 29C257.434 14.516 246.074 2.162 232.016 2.162H203.19V100H187.996V0.599993H242.524C256.582 0.599993 268.51 12.244 268.226 26.302C268.084 40.076 256.724 51.152 243.092 51.152H231.874C231.306 51.152 230.596 51.152 230.028 51.152C231.306 51.862 232.584 52.714 234.004 53.708V53.85C238.832 57.4 243.66 62.796 248.488 69.612C265.528 93.894 279.728 98.58 279.87 98.58ZM277.543 0.599993H382.907V18.35L381.771 17.64C381.487 17.498 370.127 2.162 344.993 2.162C343.005 2.162 341.301 3.014 339.881 4.292C338.603 5.57 337.893 7.416 337.893 9.404V100H322.557V9.404C322.557 7.416 321.705 5.57 320.427 4.292C319.007 3.014 317.303 2.162 315.315 2.162C290.181 2.162 278.821 17.498 278.537 17.64L277.543 18.35V0.599993ZM391.289 0.599993H465.271V18.35L464.135 17.64C463.993 17.64 459.733 14.942 452.491 11.676C438.007 5.28599 422.387 2.162 406.483 2.162V46.75H437.297V48.312H406.483V100H391.289V0.599993ZM540.172 15.936C547.556 24.882 552.1 37.094 552.1 50.3C552.1 77.706 533.072 100 509.642 100C499.986 100 491.04 96.308 483.94 89.918C481.952 88.498 480.39 86.794 478.97 84.806C471.586 75.86 467.184 63.648 467.184 50.3C467.184 23.036 486.212 0.599993 509.642 0.599993C519.156 0.599993 528.102 4.43399 535.202 10.824C537.19 12.244 538.894 13.948 540.172 15.936ZM535.202 65.21C545.568 47.46 546.562 28.006 539.178 16.93C537.616 15.084 536.054 13.522 534.35 11.96C533.782 11.534 533.072 11.108 532.504 10.682C529.38 8.836 525.83 7.984 522.138 7.984C509.074 7.984 493.738 18.492 483.94 35.532C473.716 53.282 472.58 72.736 480.106 83.812C481.526 85.658 483.088 87.22 484.792 88.782C485.502 89.208 486.07 89.634 486.638 90.06C493.454 93.894 502.258 93.61 511.346 88.924C520.718 84.238 529.096 75.86 535.202 65.21ZM511.062 39.792C511.488 44.62 515.322 48.454 520.292 49.022L534.066 50.442L520.292 51.862C515.322 52.288 511.488 56.122 511.062 61.092L509.642 74.866L508.222 61.092C507.654 56.122 503.82 52.288 498.992 51.862L485.218 50.442L498.992 49.022C503.82 48.454 507.654 44.62 508.222 39.792L509.642 26.018L511.062 39.792ZM639.34 80.546L640.618 78.7V100H563.796V0.599993H578.99V98.58H587.936C591.77 98.58 595.462 98.296 599.296 97.728C629.968 92.9 639.198 80.688 639.34 80.546ZM664.551 100H649.357V0.599993H664.551V100ZM749.151 15.936C756.535 24.882 761.079 37.094 761.079 50.3C761.079 77.706 742.051 100 718.621 100C708.965 100 700.019 96.308 692.919 89.918C690.931 88.498 689.369 86.794 687.949 84.806C680.565 75.86 676.163 63.648 676.163 50.3C676.163 23.036 695.191 0.599993 718.621 0.599993C728.135 0.599993 737.081 4.43399 744.181 10.824C746.169 12.244 747.873 13.948 749.151 15.936ZM744.181 65.21C754.547 47.46 755.541 28.006 748.157 16.93C746.595 15.084 745.033 13.522 743.329 11.96C742.761 11.534 742.051 11.108 741.483 10.682C738.359 8.836 734.809 7.984 731.117 7.984C718.053 7.984 702.717 18.492 692.919 35.532C682.695 53.282 681.559 72.736 689.085 83.812C690.505 85.658 692.067 87.22 693.771 88.782C694.481 89.208 695.049 89.634 695.617 90.06C702.433 93.894 711.237 93.61 720.325 88.924C729.697 84.238 738.075 75.86 744.181 65.21ZM720.041 39.792C720.467 44.62 724.301 48.454 729.271 49.022L743.045 50.442L729.271 51.862C724.301 52.288 720.467 56.122 720.041 61.092L718.621 74.866L717.201 61.092C716.633 56.122 712.799 52.288 707.971 51.862L694.197 50.442L707.971 49.022C712.799 48.454 716.633 44.62 717.201 39.792L718.621 26.018L720.041 39.792Z" fill="#FFFAFB"/>
</g>
<defs>
<filter id="filter0_d_205_1247" x="0.809998" y="0.599976" width="764.269" height="109.4" filterUnits="userSpaceOnUse" color-interpolation-filters="sRGB">
<feFlood flood-opacity="0" result="BackgroundImageFix"/>
<feColorMatrix in="SourceAlpha" type="matrix" values="0 0 0 0 0 0 0 0 0 0 0 0 0 0 0 0 0 0 127 0" result="hardAlpha"/>
<feOffset dy="6"/>
<feGaussianBlur stdDeviation="2"/>
<feComposite in2="hardAlpha" operator="out"/>
<feColorMatrix type="matrix" values="0 0 0 0 0 0 0 0 0 0 0 0 0 0 0 0 0 0 0.25 0"/>
<feBlend mode="normal" in2="BackgroundImageFix" result="effect1_dropShadow_205_1247"/>
<feBlend mode="normal" in="SourceGraphic" in2="effect1_dropShadow_205_1247" result="shape"/>
</filter>
</defs>
</svg>
