<svg width="74" height="22" viewBox="0 0 74 22" fill="none" xmlns="http://www.w3.org/2000/svg">
<path d="M0.427124 10.8911C6.3614 10.8911 11.3268 15.7316 11.3268 21.7822C11.3268 15.7316 16.1711 10.8911 22.2265 10.8911C16.1711 10.8911 11.3268 5.92959 11.3268 0C11.3268 5.92959 6.3614 10.8911 0.427124 10.8911Z" fill="#FFE3EA"/>
<path d="M26.3139 10.8911C32.2481 10.8911 37.2136 15.7316 37.2136 21.7822C37.2136 15.7316 42.0579 10.8911 48.1133 10.8911C42.0579 10.8911 37.2136 5.92959 37.2136 0C37.2136 5.92959 32.2481 10.8911 26.3139 10.8911Z" fill="#FFE3EA"/>
<path d="M52.2006 10.8911C58.1349 10.8911 63.1003 15.7316 63.1003 21.7822C63.1003 15.7316 67.9446 10.8911 74 10.8911C67.9446 10.8911 63.1003 5.92959 63.1003 0C63.1003 5.92959 58.1349 10.8911 52.2006 10.8911Z" fill="#FFE3EA"/>
</svg>
